<svg id="Layer_1" data-name="Layer 1" xmlns="http://www.w3.org/2000/svg" viewBox="0 0 16 16"><defs><style>.cls-1{fill:#ffdfbf;}</style></defs><path class="cls-1" d="M5.27,4.84c.33.59.65,1.19,1,1.77.14.25.29.5.44.74.25.42.47.84,1,.92a1.08,1.08,0,0,0,1-.43c.13-.18.25-.38.36-.57s.29-.48.43-.72a17.19,17.19,0,0,0,.78-1.62A1,1,0,0,0,8.5,4.09c-.19.45-.4.89-.63,1.33v0C7.6,5,7.35,4.5,7.11,4.05l0,.06a1.05,1.05,0,0,0-.52-.54,1,1,0,0,0-.77,0,1,1,0,0,0-.55.52A1,1,0,0,0,5.27,4.84Z"/><path class="cls-1" d="M8.58,13.56a86.81,86.81,0,0,1,5.84-8,1,1,0,0,0-1.55-1.27A85.34,85.34,0,0,0,7.8,11.13C6.24,8.86,4.72,6.55,3.29,4.19A1,1,0,0,0,1.9,4a1,1,0,0,0-.23,1.39Q4.19,9.53,7,13.51A1,1,0,0,0,8.58,13.56Z"/></svg>