<svg id="Layer_1" data-name="Layer 1" xmlns="http://www.w3.org/2000/svg" viewBox="0 0 632.47 636.99"><defs><style>.cls-1{fill:#ede4dc;}.cls-2{fill:#f7981d;}</style></defs><path class="cls-1" d="M386.21,355.33c-5-2.7-7.79-8.24-10-12.53-1.16-2.21-2-4.13-2.62-5.5s-1-2.24-1-2.24.72-.54,2-1.37l5.2-3.23c4.14-2.45,9.68-5.6,15.17-5.25,5.71.38,10.3,5.06,13.13,10.4a30.22,30.22,0,0,1,2.82,7.35c.54,2,.77,3.4.77,3.4l-.62.71a15.66,15.66,0,0,1-1.79,1.78,44.39,44.39,0,0,1-6.35,4.7C397.66,356.57,391.09,358,386.21,355.33Z"/><path class="cls-1" d="M361.33,383.42c-3.16-4.7-3.1-10.93-3.08-15.77,0-2.5.11-4.62.24-6.1s.15-2.46.15-2.46.89-.14,2.41-.29l6.11-.45a46.93,46.93,0,0,1,8,.08,17.49,17.49,0,0,1,7.85,2.35,13.78,13.78,0,0,1,5.26,6.55,25.54,25.54,0,0,1,1.51,8.77,30.25,30.25,0,0,1-.91,7.82c-.46,2-.9,3.36-.9,3.36a16.56,16.56,0,0,1-3.29,1.07,42.26,42.26,0,0,1-7.79,1.2C370.89,389.8,364.42,388,361.33,383.42Z"/><path class="cls-1" d="M326.25,396.7c-.61-5.65,2.37-11.06,4.62-15.37,1.16-2.21,2.24-4,3-5.28s1.27-2.1,1.27-2.1.85.29,2.26.87l5.61,2.44A46.6,46.6,0,0,1,350.1,381a17.57,17.57,0,0,1,5.88,5.72A13.76,13.76,0,0,1,357.6,395a25.4,25.4,0,0,1-2.73,8.49,30.45,30.45,0,0,1-4.44,6.5c-1.37,1.6-2.37,2.56-2.37,2.56a16.56,16.56,0,0,1-3.42-.57,43.52,43.52,0,0,1-7.47-2.57C331.74,406.86,326.83,402.22,326.25,396.7Z"/><path class="cls-1" d="M289,392.16c2.09-5.32,7.17-8.52,11.22-11.48,2-1.41,3.81-2.36,5.12-3.23l2.11-1.31s.63.67,1.6,1.87l3.86,4.72a53.74,53.74,0,0,1,4.49,6.64,17.25,17.25,0,0,1,2.53,7.79c.3,5.64-3.79,11-8.74,14.28a29.29,29.29,0,0,1-6.94,3.74c-1.95.75-3.28,1.12-3.28,1.12s-1.15-.75-2.76-2.05a35.5,35.5,0,0,1-5.42-5.78C289.11,403.89,287,397.28,289,392.16Z"/><path class="cls-1" d="M258.17,370.85c4.32-3.74,10.31-4.23,15.27-4.94,4.81-.43,8.54-.64,8.54-.64s.81,3.67,1.75,8.37c.7,4.94,1.85,10.89-.51,16s-8.51,8-14.4,8.57a32.88,32.88,0,0,1-11.31-.47,33.68,33.68,0,0,1-3.58-10.73C252.81,381.27,254,374.44,258.17,370.85Z"/><path class="cls-1" d="M240.74,337.65c5.56-1.29,11.08,1.07,15.81,2.73,4.46,1.84,7.84,3.38,7.84,3.38l-.63,2.38-1.7,5.84c-1.64,4.69-3.41,10.52-7.88,14s-11.23,3.16-16.72.92a30.7,30.7,0,0,1-7-3.59c-1.72-1.18-2.78-2.07-2.78-2.07s0-1.37.13-3.45a35,35,0,0,1,1.67-7.74C231.13,344.39,235.37,338.89,240.74,337.65Z"/><path class="cls-1" d="M240.74,300.16a17.38,17.38,0,0,1,7.13,4,54.65,54.65,0,0,1,5.62,5.71l3.87,4.72c1,1.2,1.51,1.94,1.51,1.94l-1.71,1.82c-1.09,1.12-2.39,2.67-4.18,4.4-3.7,3.39-7.87,7.71-13.5,8.69-5.43,1-11.46-2.45-15.21-7a36.11,36.11,0,0,1-4.59-6.44c-1-1.84-1.46-3.11-1.46-3.11s.63-1.22,1.75-3a28.86,28.86,0,0,1,5-6.06,23.86,23.86,0,0,1,7.38-5A13.75,13.75,0,0,1,240.74,300.16Z"/><path class="cls-1" d="M258.17,267a17.33,17.33,0,0,1,4.42,6.89,51.5,51.5,0,0,1,2.31,7.68c.52,2.49.94,4.55,1.24,6s.41,2.41.41,2.41l-2.35.81c-1.38.53-3.36,1.23-5.75,1.92-4.72,1.33-10.57,3.17-16,1.44s-8.89-7.44-10.24-13.26a44.28,44.28,0,0,1-1-7.84,26,26,0,0,1,.15-3.45s1.14-.79,3-1.81a29.51,29.51,0,0,1,7.27-3,24.62,24.62,0,0,1,8.85-1A13.92,13.92,0,0,1,258.17,267Z"/><path class="cls-1" d="M289,245.65a17.44,17.44,0,0,1,.72,8.16,52.85,52.85,0,0,1-1.51,7.87c-.69,2.44-1.27,4.46-1.67,5.87s-.75,2.32-.75,2.32l-2.46-.38c-1.47-.16-3.56-.46-6-.94-4.81-1-10.84-2.1-14.84-6.15s-4.42-10.73-2.92-16.49a44.24,44.24,0,0,1,2.7-7.44,33.73,33.73,0,0,1,1.74-3s1.37-.17,3.47-.23a29,29,0,0,1,7.85.68,24.17,24.17,0,0,1,8.3,3.24A13.78,13.78,0,0,1,289,245.65Z"/><path class="cls-1" d="M326.25,241.11c-.74,5.45-4.93,10.3-8.16,13.84l-4.22,4.45c-1.08,1.09-1.76,1.69-1.76,1.69s-.78-.62-2-1.45-2.93-2.08-4.86-3.66c-3.76-3.12-8.61-6.91-10.26-12.35s1.09-11.53,5.1-15.95a43.92,43.92,0,0,1,5.87-5.3,18,18,0,0,1,2.92-1.85s1.29.5,3.17,1.43a31.23,31.23,0,0,1,6.61,4.23C323.32,230.05,327,235.43,326.25,241.11Z"/><path class="cls-1" d="M361.33,254.39c-3.19,4.47-9.2,6.88-13.65,8.43a80.82,80.82,0,0,1-8.12,2.65,67.53,67.53,0,0,1-3.7-7.72c-2-4.26-4.41-10.19-3.37-15.68s6.24-9.48,11.92-11.78a43,43,0,0,1,7.63-1.87c2.09-.31,3.48-.37,3.48-.37a41.25,41.25,0,0,1,6.06,9.58C363.86,243.31,364.66,249.72,361.33,254.39Z"/><path class="cls-1" d="M386.21,282.48c-4.9,2.48-11.32,1.81-16,1.14-4.93-.6-8.43-1.42-8.43-1.42s0-.88,0-2.42.08-3.64.31-6.15c.24-4.69.86-11.11,4.31-15.45s9.93-5.49,16-4.89a43.19,43.19,0,0,1,7.61,1.87,29.56,29.56,0,0,1,3.25,1.29,40.25,40.25,0,0,1,.91,11.29C393.61,273.81,391.32,279.88,386.21,282.48Z"/><path class="cls-1" d="M395.22,318.91c-5.62-.08-10.92-3.67-14.71-6.46a67.76,67.76,0,0,1-6.8-5.18,65.85,65.85,0,0,1,4.24-7.42c2.4-4,5.91-9.43,11-11.68s11.34-.25,16.47,3.13a44.48,44.48,0,0,1,8.15,7.87,43.93,43.93,0,0,1-4.44,10.42C405.74,314.68,400.83,319,395.22,318.91Z"/><path class="cls-2" d="M445.28,354.36c-5.4-1.55-9.41-6.42-12.16-10.46-1.28-2-2.63-4-3.43-5.35s-1.27-2.28-1.27-2.28a55.8,55.8,0,0,1,6.92-5.78c3.82-3,9.09-6.37,14.7-6.17s10.5,4.45,13.92,9.07a43.57,43.57,0,0,1,4.63,9.29s-.73,1-2,2.44a30.26,30.26,0,0,1-5.37,4.93C456.58,353.4,450.67,355.92,445.28,354.36Z"/><path class="cls-2" d="M430.72,387.78c-4.81-3-7.16-8.64-8.81-13.33a55.35,55.35,0,0,1-2.47-8.63s.87-.48,2.35-1.17,3.49-1.63,5.75-2.57c4.57-1.8,10.66-3.59,16-1.88s8.81,7.09,10.76,12.44a29.45,29.45,0,0,1,1.79,7.13c.24,1.89.28,3.12.28,3.12a43.86,43.86,0,0,1-9.08,5.11C442,390,435.46,390.72,430.72,387.78Z"/><path class="cls-2" d="M407.71,416.06c-3.87-4.2-4.44-10.11-5-15.27a53,53,0,0,1,.05-8.9l2.59-.49a55.76,55.76,0,0,1,6.16-1c4.94-.48,11.35-.5,16,2.58s6.52,9.17,6.91,14.81a45.09,45.09,0,0,1-.12,7.41,28.16,28.16,0,0,1-.59,3.07,44.7,44.7,0,0,1-10.2,2.38C418.13,421.38,411.44,420.13,407.71,416.06Z"/><path class="cls-2" d="M378,437.15a16.63,16.63,0,0,1-1.63-8,41.39,41.39,0,0,1,.92-8.11,52.53,52.53,0,0,1,2.49-8.47,52.45,52.45,0,0,1,8.79.87,39.48,39.48,0,0,1,7.86,2.2,16.63,16.63,0,0,1,6.81,4.53,14.77,14.77,0,0,1,3.25,7.7,26.31,26.31,0,0,1-.53,8.48,45.09,45.09,0,0,1-3.45,10,45.07,45.07,0,0,1-10.53-.54,26.24,26.24,0,0,1-8.06-2.69A15.07,15.07,0,0,1,378,437.15Z"/><path class="cls-2" d="M343.61,449.44c-1.09-5.5,1.37-11.4,3.67-15.79a55,55,0,0,1,3.24-5.31l1.42-2.22a53.5,53.5,0,0,1,8.25,3.31c4.58,2.44,9.85,5.21,12.28,10.37,2.36,5,1,11.64-1.72,16.39a44.05,44.05,0,0,1-6.07,8.56,28.7,28.7,0,0,1-3.06-.61,44.52,44.52,0,0,1-6.91-2.7C349.63,459,344.71,455,343.61,449.44Z"/><path class="cls-2" d="M307.21,451.77c.42-5.6,4.37-10.5,7.77-14,1.73-1.66,3.36-3.43,4.56-4.47s2-1.7,2-1.7a56.78,56.78,0,0,1,7.08,5.62c3.69,3.14,8.06,7.62,9,13.16s-2.24,11.18-6.09,15.46a43.33,43.33,0,0,1-8.15,6.4s-1.13-.52-2.78-1.47a29.62,29.62,0,0,1-5.91-4.24C310.45,462.66,306.78,457.37,307.21,451.77Z"/><path class="cls-2" d="M271.51,444.39c1.95-5.38,6.95-8.62,11.26-11.41a53.83,53.83,0,0,1,7.93-4.11S293.24,432,296,436s5.7,9.74,5.11,15.32-5.13,10.05-10,13a32.21,32.21,0,0,1-9.61,4.17,44.4,44.4,0,0,1-6.84-7.92C271.59,456.06,269.62,449.56,271.51,444.39Z"/><path class="cls-2" d="M239.13,427.63a16.65,16.65,0,0,1,6.36-5.12,43.84,43.84,0,0,1,7.62-2.89,52.07,52.07,0,0,1,8.68-1.68l1,2.33a53.74,53.74,0,0,1,2.19,5.88c1.42,4.84,2.79,11,.75,16.14-2.12,5.31-7.71,8.41-13.12,9.83a44.4,44.4,0,0,1-7.25,1.33,22,22,0,0,1-3.19.16,45.15,45.15,0,0,1-4.36-9.59,25.38,25.38,0,0,1-1.28-8.42A14.9,14.9,0,0,1,239.13,427.63Z"/><path class="cls-2" d="M212.42,402.78c4.29-3.44,10.71-4,15.69-4a55.54,55.54,0,0,1,6.24.41c1.53.22,2.59.29,2.59.29a53.31,53.31,0,0,1,.88,8.83c0,5.16-.14,11.19-3.58,15.68s-9.85,6.2-15.34,6a45.19,45.19,0,0,1-10.4-1.42,15.48,15.48,0,0,1-.82-3,44.8,44.8,0,0,1-.81-7.35C206.73,412.53,208,406.37,212.42,402.78Z"/><path class="cls-2" d="M193.46,371.61c5.16-2.2,11.41-1,16.15.39s8.38,3,8.38,3a55.13,55.13,0,0,1-1.63,8.81c-1.31,4.88-3,10.67-7.59,14.09s-11.11,3.29-16.45,1.7a44,44,0,0,1-9.55-4.23,32.08,32.08,0,0,1,1.16-10.4C185.36,379.46,188.29,373.81,193.46,371.61Z"/><path class="cls-2" d="M183.72,336.46c5.57-.71,11.17,2.17,15.27,4.79,2,1.34,4,2.58,5.31,3.54s2.06,1.59,2.06,1.59a69.09,69.09,0,0,1-4,8c-2.34,4.26-5.86,9.47-11.09,11.51s-11.37.09-16.33-2.81a38.15,38.15,0,0,1-8-6.68s.28-1.22.88-3a31.16,31.16,0,0,1,2.94-6.66C173.71,341.83,178.15,337.18,183.72,336.46Z"/><path class="cls-2" d="M183.72,300c5.67.82,9.81,5,13.5,8.7a53.86,53.86,0,0,1,5.61,6.94s-.61.79-1.71,2-2.39,2.89-4.17,4.66c-3.51,3.48-8.4,7.55-14,8.1s-10.87-3-14.76-7.13a36.73,36.73,0,0,1-4.57-5.82c-.95-1.63-1.47-2.74-1.47-2.74a44.24,44.24,0,0,1,6.38-8.29C172.27,302.46,178.27,299.21,183.72,300Z"/><path class="cls-2" d="M193.46,264.86c5,2.23,8.42,7.64,10.75,12.08a55.53,55.53,0,0,1,2.53,5.73c.52,1.46.89,2.41.89,2.41a52.91,52.91,0,0,1-7.38,4.85,43.15,43.15,0,0,1-7.48,3.25,16.48,16.48,0,0,1-8.13.79,15,15,0,0,1-7.4-3.92,25.29,25.29,0,0,1-5-6.91,45.22,45.22,0,0,1-3.58-9.92,19.72,19.72,0,0,1,2.37-2.11,44.53,44.53,0,0,1,6.14-4.11C182.11,264.25,188.22,262.53,193.46,264.86Z"/><path class="cls-2" d="M212.42,233.69c4.33,3.58,6.12,9.69,7.09,14.54s1.16,8.82,1.16,8.82a54.58,54.58,0,0,1-8.55,2.6c-5,1-10.88,2.19-16-.29-5-2.39-8.06-8.39-9-13.83a44.4,44.4,0,0,1-.64-10.43s1.06-.64,2.77-1.46a35.51,35.51,0,0,1,7-2.28C201.74,230.1,208.1,230.11,212.42,233.69Z"/><path class="cls-2" d="M239.13,208.83c3.2,4.61,3.25,10.94,2.85,15.82-.32,2.63-.57,4.79-.75,6.3s-.45,2.58-.45,2.58a57.22,57.22,0,0,1-9,.12c-4.85-.1-11.08-.82-15.3-4.53s-5.32-10.07-5-15.81a43.37,43.37,0,0,1,2.27-10.13s1.19-.32,3.07-.63a29.27,29.27,0,0,1,7.3-.41C229.76,202.46,235.92,204.22,239.13,208.83Z"/><path class="cls-2" d="M271.51,192.08c1.84,5.31.16,11.35-1.57,15.88a59.46,59.46,0,0,1-3.51,8.3s-1-.17-2.55-.56-3.8-1-6.12-1.69c-4.67-1.45-10.51-3.87-13.58-8.57s-2.38-11.08-.54-16.49a29.83,29.83,0,0,1,3.13-6.6c1-1.63,1.75-2.62,1.75-2.62a41.92,41.92,0,0,1,10.24,1.72C264.19,183.35,269.67,186.77,271.51,192.08Z"/><path class="cls-2" d="M307.21,184.69c.34,5.71-3,10.62-5.81,15a53.55,53.55,0,0,1-5.65,6.88s-.9-.44-2.32-1.27-3.31-1.75-5.39-3.13c-4.12-2.74-9.1-6.72-10.78-12.08s.73-11.24,4-15.88a39.64,39.64,0,0,1,4.78-5.66c1.4-1.26,2.39-2,2.39-2a44.08,44.08,0,0,1,9.42,4.58C302.5,174,306.88,179.19,307.21,184.69Z"/><path class="cls-2" d="M343.61,187c-1.17,5.44-5.78,9.93-9.63,13a54,54,0,0,1-5.1,3.62c-1.32.8-2.18,1.41-2.18,1.41a51.76,51.76,0,0,1-6.27-6.26c-3.24-4-7-8.88-7.13-14.46s3.72-11,8.1-14.29a44.64,44.64,0,0,1,9-5.5,14.78,14.78,0,0,1,2.55,1.83,44.46,44.46,0,0,1,5.27,5.2C341.86,175.91,344.8,181.48,343.61,187Z"/><path class="cls-2" d="M378,199.32c-2.63,5-8.23,7.92-12.76,9.81-2.26.89-4.35,1.61-5.91,2.21s-2.5.79-2.5.79a55.44,55.44,0,0,1-4.26-7.91c-2.1-4.46-4.37-10.2-3-15.68s6.51-9.46,11.71-11.74a43.72,43.72,0,0,1,10.06-2.68s.84.92,2,2.44a28.26,28.26,0,0,1,3.71,6.33C379.32,188.09,380.59,194.35,378,199.32Z"/><path class="cls-2" d="M407.71,220.4c-3.86,4.08-10,5.37-14.85,5.92a67.59,67.59,0,0,1-9,.68s-.31-.94-.69-2.52-.8-3.88-1.29-6.23c-.86-4.81-1.39-11.1,1.38-16s8.76-7.21,14.42-8.06A30.29,30.29,0,0,1,405,194c1.91.14,3.13.34,3.13.34a38.93,38.93,0,0,1,3.16,9.91C412.09,209.91,411.58,216.33,407.71,220.4Z"/><path class="cls-2" d="M430.72,248.68c-4.86,2.92-10.93,2.38-15.9,1.73a55.14,55.14,0,0,1-8.79-1.79s0-4.07.38-8.91,1.73-11.15,5.71-15.1,10.33-4.55,16-3.82a31.39,31.39,0,0,1,10.06,2.86,44,44,0,0,1,.34,10.42C437.91,239.64,435.49,245.83,430.72,248.68Z"/><path class="cls-2" d="M445.28,282.1c-5.46,1.48-11.07-.7-15.87-2.61a52.66,52.66,0,0,1-7.84-4.14l.72-2.5a57,57,0,0,1,2-5.93c1.84-4.6,4.82-10.34,9.63-13,5-2.79,11.14-1.59,16.34.66a44.08,44.08,0,0,1,6.51,3.52,16.79,16.79,0,0,1,2.49,1.92,44.65,44.65,0,0,1-2.6,10.18C454.75,275.33,450.66,280.64,445.28,282.1Z"/><path class="cls-2" d="M450.35,318.23c-5.62,0-10.91-3.65-14.75-6.8a55.63,55.63,0,0,1-4.56-4.27c-1.05-1.14-1.83-1.85-1.83-1.85a52.18,52.18,0,0,1,4.89-7.4c3.27-4,7.24-8.59,12.7-9.9s11.51,1.42,15.65,5a45,45,0,0,1,7.18,7.68,14.09,14.09,0,0,1-1.28,2.88,44.89,44.89,0,0,1-4,6.2C460.86,314.27,456,318.28,450.35,318.23Z"/><path class="cls-1" d="M510.34,354.77c-5.52-1-10-5.61-13.08-9.61a49,49,0,0,1-4.85-7.61l1.8-2a51,51,0,0,1,4.57-4.44c3.84-3.25,9.12-6.77,14.73-6.63s10.51,4.24,14,8.6a46.8,46.8,0,0,1,4,6,15.16,15.16,0,0,1,1.34,2.76,45.86,45.86,0,0,1-7.14,7.45C521.46,352.86,515.86,355.83,510.34,354.77Z"/><path class="cls-1" d="M500.31,389.86c-5.22-2.05-8.71-7.34-11-11.82a51.3,51.3,0,0,1-2.48-5.86c-.61-1.62-1-2.54-1-2.54a49.44,49.44,0,0,1,7.45-5.12c4.44-2.47,10.33-4.94,15.82-3.77s9.49,6.07,12,11a46,46,0,0,1,3.66,9.63,17.49,17.49,0,0,1-2.25,2.05,46.44,46.44,0,0,1-6.07,4C511.64,390.06,505.54,391.92,500.31,389.86Z"/><path class="cls-1" d="M484,422.51c-4.76-3-7.17-8.81-8.55-13.62-1.22-4.77-1.92-8.94-1.92-8.94a49.51,49.51,0,0,1,8.35-3.62c4.85-1.59,11.14-2.91,16.32-.75s8.16,7.71,9.71,13a45.44,45.44,0,0,1,1.73,10.11,31.23,31.23,0,0,1-9.18,4.43C495.14,424.8,488.77,425.49,484,422.51Z"/><path class="cls-1" d="M462,451.61c-4.13-3.81-5.42-10-5.87-14.92-.16-2.45-.3-4.8-.34-6.49s0-2.71,0-2.71a50.54,50.54,0,0,1,8.92-2c5.14-.62,11.5-.8,16.11,2.23,4.78,3.14,6.75,9.17,7.23,14.59a44.75,44.75,0,0,1-.2,10.21s-1.08.49-2.82,1.1a29.58,29.58,0,0,1-6.95,1.63C472.54,455.92,466.13,455.41,462,451.61Z"/><path class="cls-1" d="M435,476.19c-3.36-4.49-3.49-10.75-3-15.69a67.14,67.14,0,0,1,1.32-9.17,51.25,51.25,0,0,1,9.18-.29c5.24.41,11.34,1.21,15.37,5.08s5.09,10.39,4.5,15.73a44.82,44.82,0,0,1-2.09,10,38.14,38.14,0,0,1-10.06.95C444.64,482.39,438.41,480.69,435,476.19Z"/><path class="cls-1" d="M404,495.44c-2.49-5.07-1.41-11.12-.08-16a52.42,52.42,0,0,1,3-8.79,52.2,52.2,0,0,1,9.1,1.44c5.11,1.41,10.81,3.09,14.13,7.73s3.19,11.27,1.6,16.36a44.81,44.81,0,0,1-3.92,9.36,43.78,43.78,0,0,1-10.06-.88C412.38,503.38,406.51,500.45,404,495.44Z"/><path class="cls-1" d="M370,508.66c-1.54-5.53.74-11,2.83-15.83a52.79,52.79,0,0,1,4.56-8,52.9,52.9,0,0,1,8.71,3.17c4.66,2.11,10,5,12.42,10.1s1,11.55-1.4,16.47a44.08,44.08,0,0,1-5.61,8.41,44,44,0,0,1-9.75-2.79C376.83,518.24,371.5,514,370,508.66Z"/><path class="cls-1" d="M334.16,515.42a16.42,16.42,0,0,1,1.55-8,37.16,37.16,0,0,1,4.14-7.17,50.74,50.74,0,0,1,6-6.94s.94.43,2.4,1.25,3.48,2.13,5.57,3.48c4.14,2.71,8.93,6.73,10.33,12.18s-1.19,11.35-4.43,16A33.72,33.72,0,0,1,355,531.4c-1.37,1.25-2.31,2-2.31,2a44.75,44.75,0,0,1-9.08-4.64,26.9,26.9,0,0,1-6.22-5.6A15.11,15.11,0,0,1,334.16,515.42Z"/><path class="cls-1" d="M297.64,515.42c.54-5.59,4.67-10.48,8.37-14a49.24,49.24,0,0,1,7.15-5.59s.84.61,2.13,1.72,3,2.38,4.84,4.16c3.59,3.5,7.57,8.39,7.94,14s-3.26,10.88-7.28,14.76a38.29,38.29,0,0,1-5.62,4.56c-1.56,1-2.63,1.48-2.63,1.48a46.19,46.19,0,0,1-8.06-6.36C300.57,526.28,297.1,521,297.64,515.42Z"/><path class="cls-1" d="M261.76,508.66c1.57-5.4,6.51-9.38,10.77-12.08a51.89,51.89,0,0,1,5.61-3.05l2.42-1.07a48.46,48.46,0,0,1,5.8,6.89c2.88,4.16,5.89,9.77,5.23,15.35s-5.17,10-9.83,13a46.72,46.72,0,0,1-9.25,4.59,21.85,21.85,0,0,1-2.23-2.16,46.41,46.41,0,0,1-4.53-5.65C262.63,519.93,260.2,514.05,261.76,508.66Z"/><path class="cls-1" d="M227.75,495.44c2.54-5,8.12-8,12.78-9.81,2.36-.92,4.48-1.46,6.08-1.94s2.63-.75,2.63-.75a50,50,0,0,1,4.39,7.94c2,4.67,3.94,10.78,2.27,16.14s-6.93,8.86-12,10.91a45.43,45.43,0,0,1-9.92,2.71s-.77-.9-1.84-2.39a38.88,38.88,0,0,1-3.4-6.4C226.5,506.72,225.22,500.45,227.75,495.44Z"/><path class="cls-1" d="M196.75,476.19c3.41-4.46,9.42-6.32,14.33-7.23,2.44-.41,4.7-.65,6.4-.9s2.71-.23,2.71-.23a50.42,50.42,0,0,1,2.82,8.68c1.13,5,1.83,11.43-.75,16.28-2.69,5.07-8.45,7.45-13.84,8.51a45.17,45.17,0,0,1-10.21.77s-.59-1-1.35-2.71a28.5,28.5,0,0,1-2.24-6.81C193.43,487.08,193.34,480.66,196.75,476.19Z"/><path class="cls-1" d="M169.8,451.61c4.16-3.77,10.39-4.48,15.37-4.46,2.43.08,4.89.06,6.53.22s2.69.28,2.69.28a51.58,51.58,0,0,1,1.15,9.1A37.9,37.9,0,0,1,195,465a16.19,16.19,0,0,1-3.14,7.54,15.46,15.46,0,0,1-6.94,4.67,27.28,27.28,0,0,1-8.28,1.22,44.72,44.72,0,0,1-10.13-1.15s-.39-1.13-.83-2.92a31.37,31.37,0,0,1-1-7C164.52,461.72,165.63,455.37,169.8,451.61Z"/><path class="cls-1" d="M147.78,422.51c4.79-2.94,11-2.48,15.88-1.54a54.67,54.67,0,0,1,9.05,2.13,52.34,52.34,0,0,1-.58,9.19c-.91,5.19-2.17,11.11-6.43,14.81s-10.87,4.16-16.11,3.06a44.17,44.17,0,0,1-9.71-3,43.25,43.25,0,0,1-.06-10.08C140.72,431.5,143,425.44,147.78,422.51Z"/><path class="cls-1" d="M131.48,389.86c5.31-2,11.1-.33,16,1.38a53.26,53.26,0,0,1,8.44,3.78,52.21,52.21,0,0,1-2.31,8.94c-1.82,4.92-4,10.45-9,13.34-4.76,2.79-11.49,2.12-16.48.1a44.17,44.17,0,0,1-8.93-4.79,43.92,43.92,0,0,1,1.84-9.94C122.7,397.47,126.3,391.84,131.48,389.86Z"/><path class="cls-1" d="M121.46,354.77c5.54-1,11,1.73,15.57,4.28a52,52,0,0,1,7.52,5.3,54,54,0,0,1-4,8.38c-2.36,4.39-5.85,9.51-11.15,11.41s-11.48-.11-16.34-2.91a43.85,43.85,0,0,1-7.8-6.38,44.43,44.43,0,0,1,3.72-9.46C111.4,360.62,115.94,355.77,121.46,354.77Z"/><path class="cls-1" d="M118,318.42c5.62,0,10.9,3.7,14.76,7.06a49.85,49.85,0,0,1,6.29,6.61s-.52.89-1.49,2.27-2.37,3.27-3.85,5.22c-3.12,3.88-7.6,8.28-13.14,9.17s-11.18-2.24-15.44-5.89a28.77,28.77,0,0,1-4.91-5.2c-1.11-1.47-1.73-2.48-1.73-2.48a45.53,45.53,0,0,1,5.53-8.61C107.46,322.33,112.36,318.39,118,318.42Z"/><path class="cls-1" d="M121.46,282.06c5.51,1.06,10,5.62,13.08,9.62a47.91,47.91,0,0,1,4.84,7.61l-1.79,2a49.86,49.86,0,0,1-4.58,4.45c-3.84,3.25-9.11,6.76-14.73,6.62s-10.5-4.23-14-8.59a46,46,0,0,1-4-6A15.66,15.66,0,0,1,98.93,295a46.86,46.86,0,0,1,7.14-7.45C110.34,284,115.94,281,121.46,282.06Z"/><path class="cls-1" d="M131.48,247c5.23,2.06,8.71,7.35,11,11.83a50.55,50.55,0,0,1,2.48,5.86l.95,2.53a48.39,48.39,0,0,1-7.45,5.13c-4.43,2.47-10.32,4.94-15.82,3.77s-9.49-6.08-12-11a45.76,45.76,0,0,1-3.66-9.63,18.26,18.26,0,0,1,2.24-2,45.57,45.57,0,0,1,6.08-4C120.15,246.78,126.25,244.91,131.48,247Z"/><path class="cls-1" d="M147.78,214.33c4.76,3,7.18,8.81,8.55,13.62s1.93,8.94,1.93,8.94a50.5,50.5,0,0,1-8.35,3.62c-4.86,1.59-11.14,2.91-16.32.74s-8.16-7.7-9.71-13a45.09,45.09,0,0,1-1.74-10.1,31.27,31.27,0,0,1,9.18-4.44C136.65,212,143,211.34,147.78,214.33Z"/><path class="cls-1" d="M169.8,185.23c4.13,3.81,5.41,10,5.86,14.92.16,2.44.3,4.8.34,6.49s0,2.71,0,2.71a50.31,50.31,0,0,1-8.93,2c-5.13.62-11.5.8-16.1-2.22-4.79-3.14-6.75-9.18-7.24-14.6a45.48,45.48,0,0,1,.2-10.21s1.08-.49,2.83-1.09a28.88,28.88,0,0,1,6.94-1.63C159.25,180.91,165.67,181.42,169.8,185.23Z"/><path class="cls-1" d="M196.75,160.64c3.37,4.5,3.49,10.76,3,15.69a65.32,65.32,0,0,1-1.32,9.17,51.17,51.17,0,0,1-9.18.29c-5.24-.4-11.34-1.2-15.37-5.07s-5.09-10.39-4.5-15.73a44.5,44.5,0,0,1,2.1-10,38.26,38.26,0,0,1,10-1C187.16,154.45,193.39,156.14,196.75,160.64Z"/><path class="cls-1" d="M227.75,141.4c2.5,5.06,1.41,11.12.09,16a53.52,53.52,0,0,1-3,8.79,51.75,51.75,0,0,1-9.11-1.45c-5.1-1.41-10.8-3.09-14.13-7.73s-3.18-11.27-1.59-16.36a44.19,44.19,0,0,1,3.92-9.36,43.68,43.68,0,0,1,10,.88C219.41,133.46,225.29,136.39,227.75,141.4Z"/><path class="cls-1" d="M261.76,128.18c1.55,5.52-.74,11-2.83,15.83a52.41,52.41,0,0,1-4.56,8,52.64,52.64,0,0,1-8.7-3.17c-4.67-2.12-10-5-12.43-10.11s-1-11.54,1.41-16.46a43.54,43.54,0,0,1,5.61-8.41,43.66,43.66,0,0,1,9.74,2.78C255,118.6,260.29,122.88,261.76,128.18Z"/><path class="cls-1" d="M297.64,121.42a16.41,16.41,0,0,1-1.56,8,38.06,38.06,0,0,1-4.13,7.18,51.17,51.17,0,0,1-6,6.94s-.93-.44-2.4-1.26-3.48-2.12-5.56-3.47c-4.15-2.72-8.94-6.74-10.33-12.18s1.19-11.36,4.42-16a32.82,32.82,0,0,1,4.75-5.25c1.36-1.26,2.31-2,2.31-2a45,45,0,0,1,9.08,4.64,27.1,27.1,0,0,1,6.22,5.6A15.23,15.23,0,0,1,297.64,121.42Z"/><path class="cls-1" d="M334.16,121.42c-.54,5.59-4.68,10.47-8.38,14a49.8,49.8,0,0,1-7.15,5.6s-.84-.62-2.13-1.72-3-2.39-4.84-4.17c-3.59-3.49-7.56-8.39-7.94-14S307,110.22,311,106.35a37.16,37.16,0,0,1,5.63-4.56c1.56-1,2.62-1.48,2.62-1.48a45.78,45.78,0,0,1,8.06,6.36C331.22,110.55,334.7,115.83,334.16,121.42Z"/><path class="cls-1" d="M370,128.18c-1.56,5.39-6.51,9.38-10.77,12.08a49.77,49.77,0,0,1-5.61,3l-2.41,1.07a48.16,48.16,0,0,1-5.81-6.89c-2.87-4.16-5.88-9.76-5.23-15.34s5.18-10,9.83-13a46.28,46.28,0,0,1,9.26-4.59,23,23,0,0,1,2.22,2.15A46.23,46.23,0,0,1,366,112.3C369.16,116.9,371.59,122.78,370,128.18Z"/><path class="cls-1" d="M404,141.4c-2.53,5-8.11,8-12.78,9.8-2.35.93-4.47,1.47-6.07,2s-2.63.75-2.63.75a49,49,0,0,1-4.39-7.94c-2-4.67-3.95-10.79-2.27-16.15s6.92-8.86,12-10.91a45.57,45.57,0,0,1,9.91-2.7s.78.89,1.84,2.38a39.6,39.6,0,0,1,3.41,6.4C405.29,130.12,406.58,136.38,404,141.4Z"/><path class="cls-1" d="M435,160.64c-3.41,4.46-9.42,6.32-14.33,7.23-2.44.41-4.69.66-6.4.9s-2.71.23-2.71.23a50,50,0,0,1-2.82-8.68c-1.13-5-1.82-11.43.75-16.28,2.7-5.07,8.45-7.45,13.85-8.5a45.1,45.1,0,0,1,10.2-.77s.59,1,1.36,2.7a29.31,29.31,0,0,1,2.23,6.81C438.36,149.76,438.45,156.18,435,160.64Z"/><path class="cls-1" d="M462,185.23c-4.17,3.76-10.4,4.47-15.37,4.45-2.44-.08-4.89-.05-6.53-.22s-2.7-.28-2.7-.28a50.86,50.86,0,0,1-1.14-9.09,36.78,36.78,0,0,1,.53-8.27,16,16,0,0,1,3.13-7.53,15.38,15.38,0,0,1,6.95-4.68,27,27,0,0,1,8.28-1.21,44.82,44.82,0,0,1,10.13,1.15s.39,1.12.83,2.92a30.78,30.78,0,0,1,1,7C467.27,175.12,466.17,181.47,462,185.23Z"/><path class="cls-1" d="M484,214.33c-4.79,2.93-11,2.48-15.88,1.54a54.93,54.93,0,0,1-9-2.14,51.1,51.1,0,0,1,.58-9.18c.9-5.2,2.16-11.11,6.43-14.81s10.87-4.16,16.11-3.07a44.83,44.83,0,0,1,9.7,3,43,43,0,0,1,.07,10.08C491.07,205.34,488.8,211.39,484,214.33Z"/><path class="cls-1" d="M500.31,247c-5.31,2-11.1.33-16-1.37a53.13,53.13,0,0,1-8.45-3.78,52,52,0,0,1,2.32-8.95c1.81-4.92,4-10.45,9-13.33,4.75-2.79,11.49-2.12,16.47-.1a43.86,43.86,0,0,1,8.93,4.78,44.25,44.25,0,0,1-1.83,9.95C509.1,239.36,505.5,245,500.31,247Z"/><path class="cls-1" d="M510.34,282.06c-5.54,1-11-1.73-15.58-4.27a51.51,51.51,0,0,1-7.51-5.3,53.48,53.48,0,0,1,4-8.38c2.35-4.39,5.85-9.52,11.15-11.42s11.47.12,16.33,2.92a43.42,43.42,0,0,1,7.81,6.37,44.8,44.8,0,0,1-3.73,9.46C520.39,276.21,515.85,281.07,510.34,282.06Z"/><path class="cls-1" d="M513.82,318.42c-5.62,0-10.9-3.7-14.76-7.06a50.58,50.58,0,0,1-6.29-6.61s.53-.9,1.49-2.28,2.37-3.26,3.86-5.21c3.12-3.88,7.59-8.29,13.14-9.17s11.17,2.24,15.44,5.89a28,28,0,0,1,4.9,5.2c1.11,1.47,1.73,2.47,1.73,2.47a44.82,44.82,0,0,1-5.52,8.61C524.33,314.51,519.44,318.45,513.82,318.42Z"/><path class="cls-2" d="M556.85,337.82l0-.27c.72-7.42,7.31-13.39,15.63-13.29l19.31.44c8.19.1,15,7.59,14.13,16.69l0,.33a15.44,15.44,0,0,1-5.48,11A14.06,14.06,0,0,1,589.36,356l-19.15-2.61a15.87,15.87,0,0,1-10-5.46A14.55,14.55,0,0,1,556.85,337.82Z"/><path class="cls-2" d="M552,370.46l.06-.27c1.62-7.25,9.07-12.25,17.32-11l19.07,3.05c8.09,1.2,13.67,9.53,11.7,18.46l-.07.33c-1.93,8.94-10.42,14.2-18.38,11.88l-18.61-5.2a15.67,15.67,0,0,1-9.06-6.75A13.77,13.77,0,0,1,552,370.46Z"/><path class="cls-2" d="M542.81,402.13l.1-.26c2.39-7,10.79-10.85,18.61-8.56L580,398.94c8,2.36,12.08,11.27,9.1,19.92l-.12.31c-3.3,8.53-12.23,12.65-19.85,9.24l-17.72-7.7C544,417.37,540.1,409.05,542.81,402.13Z"/><path class="cls-2" d="M529.27,432.2l.12-.24a13.39,13.39,0,0,1,8.34-6.67A15.67,15.67,0,0,1,549,426l17.54,8.11a14.27,14.27,0,0,1,7.63,8.74,16.67,16.67,0,0,1-1.34,12.23l-.15.3c-4.39,8-13.88,10.84-20.88,6.47l-16.5-10.05C528.29,447.46,525.69,438.72,529.27,432.2Z"/><path class="cls-2" d="M511.74,460.16l.16-.22c4.42-6,13.25-7.58,20.25-3.2l16.26,10.43c7,4.38,8.78,14.25,3.37,21.62l-.2.27c-5.32,7.43-15.27,8.8-21.55,3.57l-15-12.2C508.63,475.1,507.42,466.22,511.74,460.16Z"/><path class="cls-2" d="M490.58,485.51l.19-.2c5.25-5.29,14.1-5.77,20.51-.41L526,497.43c6.26,5.23,6.81,15.35.39,21.86l-.23.24a15.53,15.53,0,0,1-11.21,5.07,14,14,0,0,1-10.64-4.47L491.1,506a15.93,15.93,0,0,1-4.28-10.53A14.47,14.47,0,0,1,490.58,485.51Z"/><path class="cls-2" d="M466.19,507.76l.22-.17c5.88-4.56,14.76-3.8,20.38,2.38l12.87,14.41c5.5,6,4.62,16.09-2.58,21.7l-.26.21c-7.1,5.76-17.07,4.38-21.75-2.38l-11.15-15.77C459.2,521.32,460.42,512.47,466.19,507.76Z"/><path class="cls-2" d="M439,526.51l.23-.14c6.38-3.83,15.18-1.7,19.89,5.15l10.79,16c4.65,6.75,2.32,16.43-5.52,21.14l-.29.16a16.39,16.39,0,0,1-12.15,1.9,14.25,14.25,0,0,1-9.08-7.22L434,546.37a15.62,15.62,0,0,1-1.25-11.23A13.53,13.53,0,0,1,439,526.51Z"/><path class="cls-2" d="M409.58,541.39l.26-.1c6.78-3.06,15.29.47,19,7.75l8.51,17.34c3.75,7.47,0,16.53-8.33,20.26l-.31.12c-8.49,3.4-17.59-.29-20.31-8.19l-6.47-18.2C399.24,552.65,402.67,544.14,409.58,541.39Z"/><path class="cls-2" d="M378.37,552l.26-.08a13.41,13.41,0,0,1,10.56,1.56,15.6,15.6,0,0,1,7.16,8.73l6,18.35a14.26,14.26,0,0,1-1.17,11.55,16.67,16.67,0,0,1-9.86,7.36l-.32.09c-8.85,2.3-17.41-2.78-19-10.84l-3.91-18.91C366.55,561.68,371.18,553.9,378.37,552Z"/><path class="cls-2" d="M346,558.28l.28,0c7.4-.78,14.57,4.46,16.15,12.64l3.48,19c1.55,8-4.43,16.2-13.52,17.2l-.33,0A15.46,15.46,0,0,1,340.15,604a14,14,0,0,1-5.42-10.19l-1.3-19.27a15.82,15.82,0,0,1,3.34-10.86A14.55,14.55,0,0,1,346,558.28Z"/><path class="cls-2" d="M313,560.14h.28c7.45.07,13.86,6.41,14.31,14.72l.87,19.3c.45,8.18-6.58,15.28-15.7,15.19h-.34a16.57,16.57,0,0,1-11.35-4.68,14.29,14.29,0,0,1-4-10.9l1.3-19.27a15.64,15.64,0,0,1,4.76-10.24A13.52,13.52,0,0,1,313,560.14Z"/><path class="cls-2" d="M280.08,557.56l.27,0c7.38,1,12.84,8.34,12.19,16.47L290.8,593.3c-.66,8.33-8.56,14.21-17.62,13l-.33,0c-9-1.48-14.88-9.4-13.12-17.5l3.91-18.91C265.39,561.8,272.74,556.33,280.08,557.56Z"/><path class="cls-2" d="M247.87,550.45l.27.07c7.11,2.17,11.58,9.92,9.81,18l-4.35,18.82c-1.77,8-10.47,13.08-19.23,10.44l-.32-.09c-8.81-2.48-13.43-11.46-10.61-19.12l6.47-18.2C232.78,552.52,240.71,548.46,247.87,550.45Z"/><path class="cls-2" d="M216.94,539l.25.11a14.46,14.46,0,0,1,7.23,7.83,15.88,15.88,0,0,1,0,11.36l-6.88,18a14,14,0,0,1-8.17,8.15,15.53,15.53,0,0,1-12.31-.47l-.3-.13c-8.4-3.64-11.72-13.19-7.88-20.41l8.9-17.15C201.7,539,210.1,536.1,216.94,539Z"/><path class="cls-2" d="M187.84,523.49l.23.15c6.3,4,8.48,12.69,4.55,20l-9.3,16.94c-3.86,7.22-13.57,9.64-21.32,4.79l-.27-.17c-7.77-4.83-9.86-14.59-5-21.31l11.16-15.77C172.7,521.47,181.51,519.58,187.84,523.49Z"/><path class="cls-2" d="M161.1,504.14l.2.18c5.81,4.65,6.62,13.81,1.81,20.43L151.6,540.27c-4.89,6.74-14.68,7.61-21.79,1.88l-.25-.22a16.68,16.68,0,0,1-5.82-10.84,14.11,14.11,0,0,1,3.77-11L140.7,506a15.71,15.71,0,0,1,10.17-4.94A13.38,13.38,0,0,1,161.1,504.14Z"/><path class="cls-2" d="M137.22,481.32l.19.2c5.11,5.42,4.7,14.57-.95,20.46L123,515.8c-5.78,6-15.62,5.6-21.87-1.06l-.23-.24c-6-6.87-5.62-16.66.91-21.87l15-12.2C123.13,475.34,132.33,475.71,137.22,481.32Z"/><path class="cls-2" d="M116.7,455.45l.16.23A13.56,13.56,0,0,1,119,466.15a15.7,15.7,0,0,1-5.83,9.68L97.88,487.69a14.24,14.24,0,0,1-11.26,2.76,16.42,16.42,0,0,1-10.25-6.79l-.19-.27C71,475.85,72.94,466.07,80,461.88l16.5-10.05C103.63,447.57,112.51,449.31,116.7,455.45Z"/><path class="cls-2" d="M99.89,427.06l.13.25c3.27,6.68.68,15.23-6.46,19.46l-16.72,9.67c-7.07,4.19-16.71,1.28-20.75-6.93l-.15-.3c-4.21-8.11-.78-17.63,6.73-20.8l17.71-7.7C88.08,417.45,96.44,420.47,99.89,427.06Z"/><path class="cls-2" d="M87.11,396.66l.09.26a14.42,14.42,0,0,1-.78,10.63,15.93,15.93,0,0,1-8.3,7.77l-17.88,7.3a14,14,0,0,1-11.53-.41,15.54,15.54,0,0,1-8.06-9.31l-.11-.31c-3.08-8.62,1.62-17.57,9.53-19.7l18.61-5.2C76.71,385.53,84.59,389.67,87.11,396.66Z"/><path class="cls-2" d="M78.59,364.81l0,.27c1.47,7.29-3.5,14.85-11.53,17l-18.72,4.78c-7.93,2.11-16.26-3.35-18.06-12.32l-.06-.32a16.66,16.66,0,0,1,2.3-12.09A14.25,14.25,0,0,1,42.44,356l19.14-2.61a15.69,15.69,0,0,1,11,2.6A13.4,13.4,0,0,1,78.59,364.81Z"/><path class="cls-2" d="M74.5,332.06l0,.27c.53,7.43-5.58,14.26-13.68,15.26l-19.19,2.17c-8.3,1-15.65-5.53-16.27-14.64l0-.33c-.39-9.12,6.24-16.46,14.47-16.37H59.15C67.43,318.5,74.21,324.61,74.5,332.06Z"/><path class="cls-2" d="M75,299l0,.28c-.72,7.41-7.32,13.39-15.63,13.28L40,312.14c-8.19-.1-15-7.59-14.12-16.69l0-.33a15.38,15.38,0,0,1,5.49-11,14,14,0,0,1,11.07-3.27l19.14,2.61a15.91,15.91,0,0,1,10,5.45A14.57,14.57,0,0,1,75,299Z"/><path class="cls-2" d="M79.77,266.37l-.06.27c-1.61,7.26-9.07,12.25-17.31,11l-19.08-3c-8.09-1.2-13.67-9.54-11.7-18.47l.08-.32c1.92-9,10.41-14.2,18.37-11.89l18.61,5.2a15.74,15.74,0,0,1,9.07,6.75A13.72,13.72,0,0,1,79.77,266.37Z"/><path class="cls-2" d="M89,234.71l-.1.26c-2.39,7-10.79,10.84-18.62,8.55l-18.48-5.63c-8-2.35-12.08-11.26-9.1-19.91l.12-.31c3.3-8.53,12.23-12.66,19.86-9.25l17.71,7.71C87.83,219.46,91.69,227.78,89,234.71Z"/><path class="cls-2" d="M102.53,204.63l-.13.25a13.4,13.4,0,0,1-8.34,6.66,15.67,15.67,0,0,1-11.27-.74l-17.53-8.11A14.2,14.2,0,0,1,57.62,194,16.63,16.63,0,0,1,59,181.72l.15-.29C63.51,173.41,73,170.59,80,175l16.5,10C103.5,189.38,106.11,198.11,102.53,204.63Z"/><path class="cls-2" d="M120.06,176.67l-.16.23c-4.42,6-13.25,7.58-20.25,3.19L83.38,169.66c-7-4.38-8.77-14.24-3.36-21.61l.19-.27c5.32-7.43,15.28-8.8,21.56-3.57l15,12.2C123.16,161.74,124.38,170.61,120.06,176.67Z"/><path class="cls-2" d="M141.22,151.33l-.19.2c-5.26,5.28-14.11,5.77-20.52.41L105.82,139.4c-6.27-5.23-6.81-15.35-.39-21.86l.22-.24a15.54,15.54,0,0,1,11.22-5.06,14,14,0,0,1,10.64,4.46l13.19,14.12A15.9,15.9,0,0,1,145,141.35,14.46,14.46,0,0,1,141.22,151.33Z"/><path class="cls-2" d="M165.61,129.08l-.22.17c-5.89,4.56-14.77,3.79-20.39-2.39l-12.87-14.41c-5.5-6-4.62-16.08,2.59-21.7l.26-.2c7.1-5.76,17.07-4.39,21.74,2.37l11.16,15.78C172.6,115.51,171.38,124.37,165.61,129.08Z"/><path class="cls-2" d="M192.77,110.33l-.24.13c-6.38,3.83-15.17,1.71-19.88-5.14l-10.8-16c-4.65-6.76-2.31-16.44,5.52-21.14l.29-.17a16.44,16.44,0,0,1,12.15-1.89,14.22,14.22,0,0,1,9.08,7.22l8.9,17.14a15.68,15.68,0,0,1,1.26,11.23A13.61,13.61,0,0,1,192.77,110.33Z"/><path class="cls-2" d="M222.21,95.44l-.26.1c-6.77,3.06-15.29-.46-18.95-7.74l-8.51-17.35c-3.76-7.46,0-16.53,8.32-20.25l.31-.13c8.49-3.4,17.6.29,20.32,8.2l6.47,18.2C232.56,84.18,229.12,92.7,222.21,95.44Z"/><path class="cls-2" d="M253.43,84.81l-.27.07a13.4,13.4,0,0,1-10.56-1.55,15.67,15.67,0,0,1-7.16-8.73l-6.05-18.35a14.3,14.3,0,0,1,1.18-11.55,16.57,16.57,0,0,1,9.85-7.36l.32-.09c8.85-2.31,17.41,2.78,19,10.83L263.64,67C265.24,75.15,260.62,82.94,253.43,84.81Z"/><path class="cls-2" d="M285.81,78.55l-.27,0c-7.41.78-14.57-4.47-16.15-12.64l-3.48-19c-1.56-8,4.42-16.2,13.51-17.2l.33,0a15.38,15.38,0,0,1,11.89,3.16,14,14,0,0,1,5.43,10.19l1.3,19.27A15.94,15.94,0,0,1,295,73.19,14.56,14.56,0,0,1,285.81,78.55Z"/><path class="cls-2" d="M318.79,76.7h-.27c-7.46-.08-13.86-6.42-14.32-14.73l-.86-19.3c-.45-8.18,6.57-15.28,15.7-15.19h.33a16.58,16.58,0,0,1,11.35,4.67,14.32,14.32,0,0,1,4,10.91l-1.3,19.27a15.6,15.6,0,0,1-4.77,10.23A13.47,13.47,0,0,1,318.79,76.7Z"/><path class="cls-2" d="M351.72,79.28l-.28,0c-7.37-1-12.83-8.34-12.18-16.47L341,43.53c.67-8.33,8.56-14.21,17.62-13l.33,0c9,1.48,14.89,9.4,13.13,17.49L368.16,67C366.41,75,359.05,80.5,351.72,79.28Z"/><path class="cls-2" d="M383.92,86.39l-.26-.08c-7.12-2.16-11.59-9.91-9.81-18l4.34-18.83c1.77-8.05,10.47-13.07,19.24-10.43l.32.09c8.8,2.48,13.42,11.46,10.61,19.12l-6.47,18.2C399,84.31,391.09,88.38,383.92,86.39Z"/><path class="cls-2" d="M414.85,97.81l-.25-.12a14.48,14.48,0,0,1-7.23-7.82,16,16,0,0,1,0-11.37l6.89-18a14,14,0,0,1,8.17-8.14,15.55,15.55,0,0,1,12.3.46l.31.14c8.4,3.63,11.72,13.18,7.87,20.41L434,90.46C430.09,97.82,421.7,100.73,414.85,97.81Z"/><path class="cls-2" d="M444,113.34l-.24-.15c-6.3-4-8.47-12.68-4.54-20l9.29-16.94c3.86-7.22,13.57-9.64,21.32-4.79l.28.18c7.77,4.82,9.85,14.59,5,21.3L463.92,108.7C459.1,115.37,450.29,117.26,444,113.34Z"/><path class="cls-2" d="M470.7,132.7l-.21-.19c-5.81-4.65-6.61-13.81-1.81-20.43l11.51-15.51c4.9-6.75,14.68-7.61,21.79-1.88l.25.21a16.71,16.71,0,0,1,5.83,10.84,14.16,14.16,0,0,1-3.77,11L491.1,130.82a15.83,15.83,0,0,1-10.18,4.94A13.38,13.38,0,0,1,470.7,132.7Z"/><path class="cls-2" d="M494.57,155.51l-.19-.2c-5.11-5.41-4.69-14.56.95-20.46L508.84,121c5.77-6,15.61-5.6,21.87,1.06l.22.24c6,6.86,5.62,16.66-.9,21.87l-15,12.2C508.67,161.5,499.47,161.12,494.57,155.51Z"/><path class="cls-2" d="M515.09,181.38l-.16-.22a13.61,13.61,0,0,1-2.1-10.47,15.6,15.6,0,0,1,5.83-9.68l15.25-11.86a14.22,14.22,0,0,1,11.26-2.77,16.39,16.39,0,0,1,10.25,6.8l.19.27c5.16,7.54,3.24,17.31-3.81,21.51l-16.5,10C528.17,189.26,519.28,187.53,515.09,181.38Z"/><path class="cls-2" d="M531.9,209.78l-.13-.25c-3.26-6.69-.68-15.23,6.46-19.46L555,180.4c7.07-4.19,16.71-1.28,20.75,6.93l.15.29c4.22,8.12.79,17.63-6.72,20.8l-17.72,7.71C543.71,219.39,535.35,216.37,531.9,209.78Z"/><path class="cls-2" d="M544.68,240.17l-.09-.26a14.49,14.49,0,0,1,.78-10.62,15.93,15.93,0,0,1,8.3-7.77l17.89-7.3a13.94,13.94,0,0,1,11.52.41,15.5,15.5,0,0,1,8.07,9.31l.1.31c3.08,8.62-1.61,17.57-9.53,19.69l-18.61,5.2C555.08,251.3,547.21,247.17,544.68,240.17Z"/><path class="cls-2" d="M553.2,272l0-.27c-1.47-7.29,3.5-14.86,11.53-17L583.41,250c7.92-2.12,16.25,3.35,18.05,12.31l.06.33a16.68,16.68,0,0,1-2.29,12.08,14.29,14.29,0,0,1-9.87,6.12l-19.15,2.61a15.61,15.61,0,0,1-11-2.61A13.43,13.43,0,0,1,553.2,272Z"/><path class="cls-2" d="M557.29,304.78l0-.28c-.52-7.43,5.59-14.25,13.68-15.25l19.2-2.18c8.29-1,15.64,5.54,16.26,14.65l0,.33c.38,9.12-6.25,16.45-14.47,16.37H572.65C564.36,318.34,557.59,312.22,557.29,304.78Z"/></svg>