<svg id="Layer_1" data-name="Layer 1" xmlns="http://www.w3.org/2000/svg" viewBox="0 0 200 200"><defs><style>.cls-1{fill:#f9f3ed;}</style></defs><path class="cls-1" d="M121,120.62a18.77,18.77,0,0,0-5.55-.93c-3.59-.07-7.18.21-10.77.2a14.47,14.47,0,0,1-4.29-.63,5.13,5.13,0,0,1-3.87-4,6.32,6.32,0,0,1,1.93-5.85c.08-.09,3.69,1.44,4.12,1.55a19.29,19.29,0,0,0,15.9-2.75,3.31,3.31,0,0,0,3.17,2.69h6.21a7.34,7.34,0,0,1-1.33-4.25V52.37l-9.54,2a7.48,7.48,0,0,1,1.41,4.33V79.59a18,18,0,0,0-4.49-2.31,19.62,19.62,0,0,0-5-1A18.87,18.87,0,0,0,98.41,78.6v-.09H85.59c0-8.23-4.27-8.65-4.27-15.82,0-4.22,2.72-7.81,7.28-7.81,9.81,0,2.92,17.3,10.59,17.3,7.48,0,5.73-18.35-9.23-18.35-11,0-14.28,6.54-14.28,19.19l3.72,5.49H68.5v1.32h7.18v45.3a9.37,9.37,0,0,1-1.84,5.59h13.6a9.34,9.34,0,0,1-1.85-5.59V79.83h11c-.3.22-.6.46-.89.71C88.4,86.78,87.46,98.45,94,105.66a36.86,36.86,0,0,0,3.31,3l-7.43,13.49c.16.32.26.52.31.64a3.08,3.08,0,0,1,.56.68c1.53,2.1,3.83,3,6.23,3.7l-8.33,9.72a18.78,18.78,0,0,0,9.21,12.73,20.06,20.06,0,0,0,11.68,2.43,21.38,21.38,0,0,0,14.26-6.3,18.67,18.67,0,0,0,4.45-7.65,22,22,0,0,0,.78-3.6C129.89,128.06,126.75,122.51,121,120.62Zm-23.08-11.4.06,0S97.94,109.29,97.94,109.22ZM97,85.32c.29-2.4.85-4.73,2.6-6.39,2.5-2.37,6.22-2.08,9-.48,4.6,2.65,8,8,9.5,13.26,1.29,4.47,1.89,10.1-.19,14.42-2.28,4.72-7,4.76-10.83,2.32-4.39-2.77-7.55-8.29-9.08-13.42A24.18,24.18,0,0,1,97,85.32Zm28,55a11.22,11.22,0,0,1-5.57,8,14.76,14.76,0,0,1-16.31-1,15.66,15.66,0,0,1-5.68-18.38c.18-.52.38-1,.58-1.53,6.29,0,13.39-.76,19.4,1.67C121.58,130.75,125.77,135.09,125,140.31Z"/><path class="cls-1" d="M90.2,122.81c-.06,0,.19.4,0,0Z"/><path class="cls-1" d="M102.58,23.62a0,0,0,0,1,0,0l-1.13,3.51a2.52,2.52,0,0,0-.08.34.27.27,0,0,0,0,.13.12.12,0,0,0,.12.06c.12,0,.27-.09.46-.28a3.75,3.75,0,0,0,.42-.48l.13.12-.06.06a5.33,5.33,0,0,1-.64.73,1.09,1.09,0,0,1-.76.33.42.42,0,0,1-.34-.19.63.63,0,0,1-.13-.43,1,1,0,0,1,0-.25,2.87,2.87,0,0,1,.08-.31l.8-2.52,0-.11a.38.38,0,0,0,0-.1c0-.12,0-.2-.12-.23a2.09,2.09,0,0,0-.51-.06v-.16l.59-.06.37,0,.45-.08A.83.83,0,0,1,102.58,23.62Zm-.43-1.26A.59.59,0,0,1,102,22a.57.57,0,0,1,.16-.38.44.44,0,0,1,.35-.14.46.46,0,0,1,.35.17A.54.54,0,0,1,103,22a.53.53,0,0,1-.16.38.44.44,0,0,1-.35.14A.46.46,0,0,1,102.15,22.36Z"/><path class="cls-1" d="M108,28.57l1.31-2.9c.12-.25.18-.4.2-.45a.84.84,0,0,0,.05-.17.31.31,0,0,0-.05-.24.44.44,0,0,0-.3-.13h-.25l0-.17h.76l.9-.06a.09.09,0,0,1,0,.05l-1,2a11.84,11.84,0,0,1,1.22-1.2,1.91,1.91,0,0,1,1.4-.59.82.82,0,0,1,.37.14.6.6,0,0,1,.2.63,1.05,1.05,0,0,1-.06.24,2.57,2.57,0,0,1-.11.27l-1,2.24-.07.18a.39.39,0,0,0-.05.14.32.32,0,0,0,0,.14.14.14,0,0,0,.1.08.49.49,0,0,0,.31-.11,5.24,5.24,0,0,0,.62-.56l.12.15a5.93,5.93,0,0,1-.74.67,1.12,1.12,0,0,1-.82.27.55.55,0,0,1-.3-.16.48.48,0,0,1-.08-.43.59.59,0,0,1,0-.17.75.75,0,0,1,0-.16l1-2.28a1.88,1.88,0,0,0,.12-.31,1.25,1.25,0,0,0,0-.18.3.3,0,0,0,0-.21.21.21,0,0,0-.19-.12c-.25,0-.59.13-1,.52a9.47,9.47,0,0,0-.83.84,5.06,5.06,0,0,0-.53.77c-.14.25-.37.72-.7,1.39Z"/><path class="cls-1" d="M118.07,30.14a.47.47,0,0,1,.05-.1L120,27l-.72-.21c0-.08,0-.14.06-.15a.17.17,0,0,1,.12,0,4.15,4.15,0,0,0,.86-.19,5.22,5.22,0,0,0,.94-.53l.1-.07,0,0a0,0,0,0,1,0,0l.07,0v.07s0,0,0,.05l-.58,1,.79.22-.15.31-.82-.23-1.79,3a.25.25,0,0,0,0,.17.13.13,0,0,0,.1.11q.14,0,.42-.15a6.22,6.22,0,0,0,.59-.41l.1.11-.09.08a4,4,0,0,1-1,.66,1.08,1.08,0,0,1-.67.07.45.45,0,0,1-.31-.23.45.45,0,0,1,0-.32Z"/><path class="cls-1" d="M127.48,30.07a2.8,2.8,0,0,1,2.27-.18,1,1,0,0,1,.5.4.62.62,0,0,1,0,.58,1.44,1.44,0,0,1-1.24.81,4.3,4.3,0,0,1-1.86-.1l-.28-.07-.21.26a1.49,1.49,0,0,0-.13.28.81.81,0,0,0,0,.73,1,1,0,0,0,.53.49,1.59,1.59,0,0,0,.83.07,6.21,6.21,0,0,0,.83-.22l.08.16a3.15,3.15,0,0,1-.81.29,2.54,2.54,0,0,1-1.58-.07,1.32,1.32,0,0,1-.67-1.83A3.05,3.05,0,0,1,127.48,30.07Zm1.23,1.23a1.47,1.47,0,0,0,.95-.74.43.43,0,0,0,0-.31.3.3,0,0,0-.2-.21.92.92,0,0,0-.69,0,3.69,3.69,0,0,0-.75.36,4.42,4.42,0,0,0-.68.56l-.34.35A3,3,0,0,0,128.71,31.3Z"/><path class="cls-1" d="M133.67,36.7l2.26-2.24.34-.35a1.71,1.71,0,0,0,.11-.14.36.36,0,0,0,0-.24c0-.08-.1-.15-.24-.23l-.11,0L136,33.4l.08-.14.43.16.29.09.86.27a.13.13,0,0,1,0,.06L136,35.37a10.36,10.36,0,0,1,1.57-.69,1.92,1.92,0,0,1,1.52-.06.81.81,0,0,1,.28.27.59.59,0,0,1,0,.66.9.9,0,0,1-.14.2,1.94,1.94,0,0,1-.2.21l-1.75,1.74-.12.14a.44.44,0,0,0-.1.12.2.2,0,0,0,0,.13.14.14,0,0,0,.07.11.48.48,0,0,0,.32,0,6.71,6.71,0,0,0,.78-.3l.06.18a5.51,5.51,0,0,1-.93.36,1.16,1.16,0,0,1-.86,0,.57.57,0,0,1-.22-.26.45.45,0,0,1,.07-.42l.1-.15a.75.75,0,0,1,.11-.13l1.75-1.78.22-.25.1-.15a.31.31,0,0,0,.05-.2.23.23,0,0,0-.13-.18c-.22-.13-.6-.09-1.16.11a9.65,9.65,0,0,0-1.07.49,5.19,5.19,0,0,0-.77.53c-.22.19-.61.54-1.15,1.06Z"/><path class="cls-1" d="M142.53,41.76l.08-.08,2.84-2.21-.61-.45a.32.32,0,0,1,.12-.12h.12A4.38,4.38,0,0,0,146,39a4.78,4.78,0,0,0,1.07-.17l.12,0h.05a.05.05,0,0,1,0,0l.05,0,0,.06,0,.05-.88.69.66.49-.25.24-.69-.51-2.72,2.13a.31.31,0,0,0-.1.15.13.13,0,0,0,.06.14.63.63,0,0,0,.45,0c.13,0,.36-.08.69-.17l.06.14-.12,0a3.71,3.71,0,0,1-1.13.26,1,1,0,0,1-.65-.16.46.46,0,0,1-.22-.33.47.47,0,0,1,.09-.31Z"/><path class="cls-1" d="M152.77,44.92a0,0,0,0,1,0,0l-3.14,1.93a1.51,1.51,0,0,0-.27.21.19.19,0,0,0-.07.11.13.13,0,0,0,.05.13c.08.08.26.1.53.09l.63-.1,0,.17-.08,0a4.9,4.9,0,0,1-1,.13,1,1,0,0,1-.79-.24.42.42,0,0,1-.14-.37.66.66,0,0,1,.18-.41,1.41,1.41,0,0,1,.18-.17l.27-.18,2.25-1.4.09-.07.07-.06a.21.21,0,0,0,.06-.25,2.18,2.18,0,0,0-.36-.38l.11-.13.49.35.3.2.4.24C152.7,44.86,152.77,44.9,152.77,44.92Zm.5-1.23a.55.55,0,0,1,.15-.38.63.63,0,0,1,.37-.19.47.47,0,0,1,.36.12.46.46,0,0,1,.15.36.55.55,0,0,1-.15.38.55.55,0,0,1-.37.18.43.43,0,0,1-.36-.12A.45.45,0,0,1,153.27,43.69Z"/><path class="cls-1" d="M159.51,52.77a1.67,1.67,0,0,1-.57.94,3.07,3.07,0,0,1-2.18.64,2.8,2.8,0,0,1-2.13-.87,1.56,1.56,0,0,1-.41-1.09,1.48,1.48,0,0,1,.58-1A3,3,0,0,1,157,50.7a2.74,2.74,0,0,1,2.1.88A1.38,1.38,0,0,1,159.51,52.77Zm-4.79,0a.7.7,0,0,0,.19.64c.35.41,1,.5,1.86.29a4.3,4.3,0,0,0,1.81-.85,1.62,1.62,0,0,0,.4-.46.63.63,0,0,0-.09-.76c-.33-.39-.93-.5-1.79-.34a4.13,4.13,0,0,0-2,.88A1.1,1.1,0,0,0,154.72,52.82Z"/><path class="cls-1" d="M159.88,60l3-.95.46-.15a.8.8,0,0,0,.16-.08.34.34,0,0,0,.15-.19.5.5,0,0,0-.11-.32l-.07-.09-.08-.1.14-.09c.14.17.24.28.31.35s.13.14.21.21l.64.64a.08.08,0,0,1,0,0l-2.15.61a12,12,0,0,1,1.72.11,1.94,1.94,0,0,1,1.37.65.75.75,0,0,1,.13.36.62.62,0,0,1-.33.58,1.13,1.13,0,0,1-.22.11,1.69,1.69,0,0,1-.27.1l-2.35.74-.18.06-.14.06a.24.24,0,0,0-.09.11.11.11,0,0,0,0,.12.46.46,0,0,0,.28.16,4.48,4.48,0,0,0,.83.09l0,.19a5.7,5.7,0,0,1-1-.11,1.1,1.1,0,0,1-.75-.43.58.58,0,0,1-.08-.33.49.49,0,0,1,.26-.35l.16-.08.15-.06,2.37-.78.31-.12.16-.09a.33.33,0,0,0,.15-.16.24.24,0,0,0,0-.21c-.14-.22-.5-.36-1.08-.44a8.63,8.63,0,0,0-1.18,0,5.16,5.16,0,0,0-.93.11c-.28.07-.78.2-1.51.41Z"/><path class="cls-1" d="M170.38,69.89a.85.85,0,0,1-.19.29l-.05,0,.39-.06s.07,0,.09,0,0,0,0,0l.3.49s0,.05,0,.06l-.06,0h-.1l-.11,0-1.82.31-1,.18c-.51.11-.8.17-.87.2a.15.15,0,0,0-.08.08.34.34,0,0,0,0,.1l.07.08.14.08.1.05.12,0,.16.06.42.16,0,.15a5.14,5.14,0,0,1-1.18-.39,1,1,0,0,1-.47-.45.36.36,0,0,1,0-.32.51.51,0,0,1,.25-.23,2.66,2.66,0,0,1,.49-.15,4.2,4.2,0,0,1,.57-.12l-.52-.09a3.8,3.8,0,0,1-.72-.24,2.27,2.27,0,0,1-.71-.43,1.34,1.34,0,0,1-.29-.41,1,1,0,0,1,0-.8A1.35,1.35,0,0,1,166,68a3.57,3.57,0,0,1,2.38-.07,2.73,2.73,0,0,1,1.92,1.33A.88.88,0,0,1,170.38,69.89Zm-.24-.06a.56.56,0,0,0,0-.44c-.23-.49-.82-.78-1.77-.85a4.08,4.08,0,0,0-2,.24.83.83,0,0,0-.45.41.57.57,0,0,0,0,.46c.22.45.78.71,1.71.79a3.94,3.94,0,0,0,2.08-.24A.76.76,0,0,0,170.14,69.83Z"/><path class="cls-1" d="M175.13,77.44h.13l.1,0c.11,0,.16-.1.15-.2a2.12,2.12,0,0,0-.14-.52l.16-.05.23.47c.08.17.14.29.17.34s.21.37.36.6a.16.16,0,0,1,0,.08l-6.19.31-.26,0-.09,0a.37.37,0,0,0-.14.08.13.13,0,0,0,0,.15c0,.11.18.23.44.34a4.84,4.84,0,0,0,.74.27l-.05.16a7.25,7.25,0,0,1-1-.36,1.25,1.25,0,0,1-.65-.66.54.54,0,0,1,0-.33.49.49,0,0,1,.36-.35l.33-.07.3,0Z"/><path class="cls-1" d="M176.82,98.81a1.45,1.45,0,0,1-.28-1.24c-.66.93-3.61,1-3.85-2a2.83,2.83,0,0,1,1.64-3.11c1.56-.38,2.62,1,2.35,2.5.2-.84.45-2.26,1.72-2.27a1.55,1.55,0,0,1,1.47,1.18,3.92,3.92,0,0,1,0,2.75l-1.06-.11v-.07c1.07-.76,1.41-1.78,1.07-2.44a1.3,1.3,0,0,0-1.33-.54c-.88.07-1.61.8-1.95,2l-.07,0c.47-1.68-.7-2.49-2.15-2.24a2.07,2.07,0,0,0-1.53,2.36c.24,3,3.36,2.82,3.8,1.68a3.75,3.75,0,0,1-1.36-.82c-.35-.41-.4-1-.07-1.14.52-.28,1.11.59,1.52,1.2l-.06,0c-.41-.61-.84-1-1.17-.87s-.22.49,0,.8a4.16,4.16,0,0,0,1.72.94,5.88,5.88,0,0,1,1.93.92.73.73,0,0,1-.11,1.14C178.37,100,177.33,99.49,176.82,98.81Zm1.81.33a.57.57,0,0,0,.16-.88,5.56,5.56,0,0,0-1.62-.73l-.49-.2a1.45,1.45,0,0,0,.18,1.45A1.31,1.31,0,0,0,178.63,99.14Z"/><path class="cls-1" d="M175.79,117.51a.8.8,0,0,1-.57.17.47.47,0,0,1-.33-.2.48.48,0,0,1,.1-.63.38.38,0,0,1,.3-.07.7.7,0,0,1,.26.13.4.4,0,0,0,.17.11.18.18,0,0,0,.17-.07.71.71,0,0,0,.12-.31,1.69,1.69,0,0,0-.66-1.53,3.41,3.41,0,0,0-1.78-.9,1.41,1.41,0,0,0-.91.08.87.87,0,0,0-.44.65,1.48,1.48,0,0,0,.09.77,2.93,2.93,0,0,0,.45.75l0,0-.13.12a3.72,3.72,0,0,1-.56-.78,2.13,2.13,0,0,1-.19-1.31,1.43,1.43,0,0,1,.61-1,1.61,1.61,0,0,1,1.21-.21,3,3,0,0,1,1.89,1.26,2.74,2.74,0,0,1,.59,2.1A1.21,1.21,0,0,1,175.79,117.51Z"/><path class="cls-1" d="M173,127.4a1.66,1.66,0,0,1-1.1,0,3.06,3.06,0,0,1-1.7-1.51,2.74,2.74,0,0,1-.39-2.26,1.4,1.4,0,0,1,1.9-1,3.08,3.08,0,0,1,1.71,1.5,2.78,2.78,0,0,1,.36,2.26A1.42,1.42,0,0,1,173,127.4Zm-2.59-4a.69.69,0,0,0-.43.5c-.17.51.08,1.09.73,1.73a4.2,4.2,0,0,0,1.68,1.08,1.62,1.62,0,0,0,.6.1.62.62,0,0,0,.6-.48c.16-.48-.06-1.05-.65-1.7a4.13,4.13,0,0,0-1.81-1.22A1.11,1.11,0,0,0,170.39,123.36Z"/><path class="cls-1" d="M167.06,131.53l2.42,2.07.37.32.16.09a.29.29,0,0,0,.24,0c.07,0,.14-.11.21-.25s0-.08,0-.11a.56.56,0,0,1,0-.12l.15.07c-.06.2-.11.35-.13.44s-.05.19-.07.29l-.2.88a.07.07,0,0,1-.06,0l-1.65-1.5a11.65,11.65,0,0,1,.82,1.51,1.89,1.89,0,0,1,.17,1.51.8.8,0,0,1-.23.3.62.62,0,0,1-.67,0l-.21-.13-.23-.18-1.87-1.6-.15-.11a.5.5,0,0,0-.13-.09.2.2,0,0,0-.13,0,.1.1,0,0,0-.1.07.44.44,0,0,0,0,.32,6.57,6.57,0,0,0,.37.76l-.18.07a6.33,6.33,0,0,1-.44-.9,1.17,1.17,0,0,1,0-.86.56.56,0,0,1,.24-.24.48.48,0,0,1,.43,0l.16.09.13.1,1.92,1.59a2.26,2.26,0,0,0,.27.2l.15.1a.41.41,0,0,0,.21,0,.23.23,0,0,0,.17-.15c.11-.22,0-.61-.21-1.14a8.63,8.63,0,0,0-.58-1,4.34,4.34,0,0,0-.58-.72c-.21-.21-.59-.56-1.15-1.07Z"/><path class="cls-1" d="M163.67,141.33l-.09.14a3.1,3.1,0,0,0-.88-.26.87.87,0,0,0-.86.42.69.69,0,0,0-.1.54.79.79,0,0,0,.37.48,1.14,1.14,0,0,0,.33.15,1.42,1.42,0,0,0,.29,0l.73,0c.45,0,.74,0,.88,0a1.28,1.28,0,0,1,.56.18,1.14,1.14,0,0,1,.48.67,1.18,1.18,0,0,1-.19.92,2.06,2.06,0,0,1-.38.42,1.85,1.85,0,0,0-.3.32.24.24,0,0,0-.06.18.58.58,0,0,0,.05.16l-.07.12-1.09-.92.09-.14a2,2,0,0,0,.72.22.78.78,0,0,0,.78-.39.66.66,0,0,0,.1-.41.48.48,0,0,0-.25-.35.72.72,0,0,0-.34-.13,5,5,0,0,0-.65,0l-.62,0a4.4,4.4,0,0,1-.75,0,1.37,1.37,0,0,1-.51-.19,1.09,1.09,0,0,1-.52-.87,1.64,1.64,0,0,1,.27-1.12,2.93,2.93,0,0,1,.38-.44,3.28,3.28,0,0,0,.3-.33.17.17,0,0,0,0-.15.33.33,0,0,0-.06-.14l.09-.14Z"/><path class="cls-1" d="M158.35,153.35a.79.79,0,0,1-.58-.12.5.5,0,0,1-.19-.34.47.47,0,0,1,.11-.34.43.43,0,0,1,.28-.16.37.37,0,0,1,.3.08.6.6,0,0,1,.16.24.58.58,0,0,0,.1.19.19.19,0,0,0,.18,0,.57.57,0,0,0,.26-.21,1.69,1.69,0,0,0,.17-1.65,3.45,3.45,0,0,0-1.1-1.66,1.43,1.43,0,0,0-.84-.38.86.86,0,0,0-.7.36,1.3,1.3,0,0,0-.29.71,2.83,2.83,0,0,0,0,.87V151l-.18,0a3.79,3.79,0,0,1-.1-.95,2.11,2.11,0,0,1,.49-1.24,1.41,1.41,0,0,1,1-.56,1.57,1.57,0,0,1,1.16.41,2.94,2.94,0,0,1,1,2,2.71,2.71,0,0,1-.52,2.12A1.17,1.17,0,0,1,158.35,153.35Z"/><path class="cls-1" d="M152.93,159.45a0,0,0,0,1-.05,0l-1.75-3.25-.18-.29a.34.34,0,0,0-.11-.07s-.09,0-.14,0a.81.81,0,0,0-.11.53,6,6,0,0,0,0,.63h-.16l0-.08a5.78,5.78,0,0,1-.08-1,1.13,1.13,0,0,1,.29-.77.43.43,0,0,1,.38-.12.67.67,0,0,1,.39.2,1.27,1.27,0,0,1,.16.2,1.82,1.82,0,0,1,.17.28L153,158.1l.06.1.06.07a.2.2,0,0,0,.25.07,2.22,2.22,0,0,0,.4-.33l.11.12-.37.46-.22.3-.26.37C153,159.39,153,159.45,152.93,159.45Zm1.2.57a.6.6,0,0,1,.37.17.57.57,0,0,1,.16.38.43.43,0,0,1-.14.36.45.45,0,0,1-.36.13.55.55,0,0,1-.37-.18.56.56,0,0,1-.17-.38.45.45,0,0,1,.15-.35A.42.42,0,0,1,154.13,160Z"/><path class="cls-1" d="M144.7,165.72a1.72,1.72,0,0,1-.91-.63,3.09,3.09,0,0,1-.51-2.2,2.82,2.82,0,0,1,1-2.08,1.54,1.54,0,0,1,1.12-.35,1.46,1.46,0,0,1,1,.64,3,3,0,0,1,.53,2.22,2.76,2.76,0,0,1-1,2A1.4,1.4,0,0,1,144.7,165.72Zm.23-4.79a.72.72,0,0,0-.65.15c-.43.33-.56.94-.4,1.84a4.4,4.4,0,0,0,.74,1.86,1.54,1.54,0,0,0,.44.42.62.62,0,0,0,.76,0c.41-.3.56-.89.45-1.76a4.12,4.12,0,0,0-.77-2.05A1,1,0,0,0,144.93,160.93Z"/><path class="cls-1" d="M138.34,169.3l0,.09a.59.59,0,0,0,0,.08c.07.12.15.18.24.16a1.63,1.63,0,0,0,.43-.19l.07.12-.57.49-.62.52a.06.06,0,0,1-.06,0,.08.08,0,0,1,0,0l0-.08-.81-3.39c0-.09,0-.15-.05-.2a.39.39,0,0,0,0-.09.22.22,0,0,0-.14-.13.29.29,0,0,0-.18,0c-.17.1-.3.37-.39.82a8.59,8.59,0,0,0-.1,2.59c0,.28.1.71.2,1.29l-.66.37-.88-3.55a1.89,1.89,0,0,0-.06-.18.32.32,0,0,0-.05-.13.18.18,0,0,0-.08-.09.14.14,0,0,0-.11,0,.27.27,0,0,0-.1.13,1.37,1.37,0,0,0-.09.25s0,.15,0,.3,0,.23-.07.42l-.17,0a4.53,4.53,0,0,1,.09-.79,1.37,1.37,0,0,1,.52-.93.56.56,0,0,1,.37-.07.47.47,0,0,1,.3.26c0,.07.08.16.12.25a2.31,2.31,0,0,1,.1.34c.06.24.14.53.22.88l.12.47,0,0a14.68,14.68,0,0,1,.14-2,1.83,1.83,0,0,1,.73-1.36.62.62,0,0,1,.29-.09.53.53,0,0,1,.48.31l.07.15a1.07,1.07,0,0,1,.06.17Z"/><path class="cls-1" d="M129,171.68l-.15.06a3.57,3.57,0,0,0-.57-.72.89.89,0,0,0-.95-.16.63.63,0,0,0-.39.39.74.74,0,0,0,0,.6,1.21,1.21,0,0,0,.18.31,1.3,1.3,0,0,0,.22.19l.61.41q.56.38.72.51a1.32,1.32,0,0,1,.35.47,1.06,1.06,0,0,1,0,.82,1.16,1.16,0,0,1-.69.64,2.47,2.47,0,0,1-.55.13,1.75,1.75,0,0,0-.43.07.3.3,0,0,0-.16.12.6.6,0,0,0,0,.16l-.13.06-.34-1.38.15-.07a2.31,2.31,0,0,0,.45.6.79.79,0,0,0,.87.13.55.55,0,0,0,.31-.27.5.5,0,0,0,0-.43.77.77,0,0,0-.21-.31,6.25,6.25,0,0,0-.53-.37l-.52-.33a6.13,6.13,0,0,1-.6-.45,1.49,1.49,0,0,1-.31-.46,1.15,1.15,0,0,1,.08-1,1.67,1.67,0,0,1,.87-.76,3.93,3.93,0,0,1,.57-.14l.44-.08a.25.25,0,0,0,.12-.1.35.35,0,0,0,0-.16l.15-.06Z"/><path class="cls-1" d="M69.48,176.91a.32.32,0,0,1,.33,0,.37.37,0,0,1,.23.19.39.39,0,0,1,0,.28,1.28,1.28,0,0,1-.21.29.17.17,0,0,0,0,.13.2.2,0,0,0,.11.09c.23.08.52-.1.85-.55a11.11,11.11,0,0,0,.82-1.36l-1-.37.18-.29,1.06.38,2-2.75a6.81,6.81,0,0,1,1.46-1.69,1.5,1.5,0,0,1,1.49-.31.91.91,0,0,1,.49.38.59.59,0,0,1,.08.49.53.53,0,0,1-.19.23.39.39,0,0,1-.32,0,.41.41,0,0,1-.23-.2.35.35,0,0,1,0-.3.31.31,0,0,1,.1-.15.43.43,0,0,0,.1-.1.09.09,0,0,0,0-.09.24.24,0,0,0-.13-.08q-.41-.15-.9.39a5,5,0,0,0-.59.81l-2.53,3.62.86.3-.17.29-.91-.32a5.93,5.93,0,0,1-1.15,1.41,1.42,1.42,0,0,1-1.45.39.8.8,0,0,1-.47-.37.54.54,0,0,1-.06-.49A.42.42,0,0,1,69.48,176.91Z"/><path class="cls-1" d="M65.54,172.57l-.06.07,0,.08c-.07.12-.07.22,0,.29a1.55,1.55,0,0,0,.4.25l-.06.12-.73-.2-.78-.22s0,0,0,0a.13.13,0,0,1,0-.06l0-.06,2.35-2.58.14-.16,0-.08a.22.22,0,0,0-.1-.32,1.19,1.19,0,0,0-.9.14,9.56,9.56,0,0,0-1.19.62,9.05,9.05,0,0,0-1,.75c-.21.18-.52.47-1,.88l-.67-.33L64.46,169l.12-.14s.06-.08.08-.12a.2.2,0,0,0,0-.11.13.13,0,0,0-.07-.09.29.29,0,0,0-.16,0,1.28,1.28,0,0,0-.26.07l-.27.12-.39.18-.08-.15a4.4,4.4,0,0,1,.71-.37,1.34,1.34,0,0,1,1-.09.55.55,0,0,1,.27.27.5.5,0,0,1,0,.39,1.58,1.58,0,0,1-.15.24,2.6,2.6,0,0,1-.23.28l-.59.67-.33.36,0,0a13.82,13.82,0,0,1,1.7-1,1.84,1.84,0,0,1,1.53-.16.65.65,0,0,1,.24.19.53.53,0,0,1,0,.57l-.08.14-.11.15Z"/><path class="cls-1" d="M59.32,165.1l-2.42,2.07-.37.32a.76.76,0,0,0-.11.14.26.26,0,0,0-.06.23c0,.08.09.16.22.25l.1.06.11.06-.09.13-.42-.19-.27-.12-.84-.33a.07.07,0,0,1,0-.06l1.74-1.4a12.42,12.42,0,0,1-1.62.58,2,2,0,0,1-1.52-.06.89.89,0,0,1-.27-.28.62.62,0,0,1,.08-.66l.16-.2.21-.19,1.87-1.61.14-.13a.32.32,0,0,0,.1-.11.21.21,0,0,0,.05-.13.14.14,0,0,0-.06-.11.4.4,0,0,0-.32,0,4.78,4.78,0,0,0-.8.24l-.05-.19a7.79,7.79,0,0,1,1-.29,1.09,1.09,0,0,1,.85.11.52.52,0,0,1,.21.27.47.47,0,0,1-.1.42l-.11.14a.68.68,0,0,1-.12.12l-1.87,1.64a2.68,2.68,0,0,0-.24.24l-.12.14a.36.36,0,0,0-.06.2c0,.07,0,.13.12.19s.59.13,1.16,0a10.27,10.27,0,0,0,1.1-.41,5.09,5.09,0,0,0,.81-.47c.24-.17.64-.5,1.23-1Z"/><path class="cls-1" d="M51.31,158.93a3.12,3.12,0,0,1-1.12-.1.87.87,0,0,1,0,.26.37.37,0,0,1-.09.23.75.75,0,0,1-.52.16,4.63,4.63,0,0,1-.65,0,1.53,1.53,0,0,1,.18.61,1.1,1.1,0,0,1-.29.76,1.6,1.6,0,0,1-1.27.54,2.16,2.16,0,0,1-1.41-.59,1.77,1.77,0,0,1-.48-.62,1,1,0,0,1-.12-.42l-.5-.44.26-.3.38.34.1-.18a1.72,1.72,0,0,1,.16-.2,1.47,1.47,0,0,1,1.3-.53,2.24,2.24,0,0,1,1.32.54l.09.1a.73.73,0,0,1,.1.13.4.4,0,0,0,.25,0,.42.42,0,0,0,.27-.11c.08-.08-.07-.47-.43-1.16a1.35,1.35,0,0,1,0-1.62,1.3,1.3,0,0,1,1.1-.42,2.56,2.56,0,0,1,1.53.76,2,2,0,0,1,.69,1,1,1,0,0,1-.2.9A1.07,1.07,0,0,1,51.31,158.93Zm-2.66.75a.6.6,0,0,0-.22-.61,1,1,0,0,0-1-.1,2.36,2.36,0,0,0-1.09.7.82.82,0,0,0-.23.48.49.49,0,0,0,.19.43,1,1,0,0,0,1.07.15,2.26,2.26,0,0,0,1-.62A1.08,1.08,0,0,0,48.65,159.68Zm1.64-3.44a.81.81,0,0,0-.74.25.7.7,0,0,0-.18.51,1.2,1.2,0,0,0,.11.41,6.78,6.78,0,0,0,.32.67c.16.3.26.47.29.51a1.27,1.27,0,0,0,.61.07,1.05,1.05,0,0,0,.8-.33.9.9,0,0,0,.17-1.06,1.83,1.83,0,0,0-.46-.59A1.64,1.64,0,0,0,50.29,156.24Z"/><path class="cls-1" d="M38.68,154.93a.61.61,0,0,1-.58.51.45.45,0,0,1-.35-.15.45.45,0,0,1-.11-.37.56.56,0,0,1,.19-.37.5.5,0,0,1,.38-.14.42.42,0,0,1,.35.16A.47.47,0,0,1,38.68,154.93Zm.62-1.17a0,0,0,0,1,0,0l3.32-1.6.3-.17a.38.38,0,0,0,.08-.11s0-.08,0-.13a.75.75,0,0,0-.52-.14,3.72,3.72,0,0,0-.63,0v-.17h.09a5,5,0,0,1,1,0,1.12,1.12,0,0,1,.76.32.45.45,0,0,1,.1.39.67.67,0,0,1-.22.38.8.8,0,0,1-.2.15l-.29.16-2.38,1.16-.1,0-.08.06a.22.22,0,0,0-.08.25,2.45,2.45,0,0,0,.32.41l-.13.11-.44-.39-.29-.23-.36-.28Q39.3,153.79,39.3,153.76Z"/><path class="cls-1" d="M29.57,139.27a.88.88,0,0,1,.25-.31l-2.06.47-.15,0-.11.05c-.11.06-.17.12-.17.18a.34.34,0,0,0,.05.2l.08.14.11.16-.15.08c-.22-.31-.55-.72-1-1.25l0-.06.06,0,3.6-.86,2.39-.56.14,0,.11-.05c.08,0,.12-.09.13-.14a.23.23,0,0,0,0-.13c0-.08-.18-.16-.42-.23a6.36,6.36,0,0,0-.62-.15l0-.15H32a3.56,3.56,0,0,1,.72.15,1.47,1.47,0,0,1,.89.56.54.54,0,0,1,.06.25.43.43,0,0,1-.27.38,2,2,0,0,1-.31.14l-.48.16a3.83,3.83,0,0,1,1.23.27,1.52,1.52,0,0,1,.79.68,1.08,1.08,0,0,1,.1.81,1.24,1.24,0,0,1-.68.74,3.4,3.4,0,0,1-2.43.2,2.73,2.73,0,0,1-1.93-1.15A.72.72,0,0,1,29.57,139.27Zm4.42.39a.51.51,0,0,0,0-.53c-.23-.41-.78-.63-1.66-.64a4,4,0,0,0-2.08.42,1.1,1.1,0,0,0-.39.33.41.41,0,0,0,0,.45c.25.45.84.68,1.78.7a3.92,3.92,0,0,0,2-.36A.93.93,0,0,0,34,139.66Z"/><path class="cls-1" d="M26.8,131.65l-.09,0-.08,0c-.13.05-.2.12-.2.21a1.41,1.41,0,0,0,.13.46l-.13,0-.4-.64-.43-.69s0,0,0-.05a.1.1,0,0,1,.05,0h.08l3.47-.31.2,0,.1,0a.23.23,0,0,0,.14-.13.19.19,0,0,0,0-.18c-.07-.18-.32-.35-.75-.5a8.62,8.62,0,0,0-1.3-.35,9.24,9.24,0,0,0-1.25-.13c-.27,0-.71,0-1.3,0l-.27-.7,3.64-.36.19,0a.25.25,0,0,0,.13,0,.23.23,0,0,0,.1-.07.11.11,0,0,0,0-.11.27.27,0,0,0-.1-.12l-.24-.12-.29-.09-.4-.13,0-.17a4,4,0,0,1,.78.21,1.31,1.31,0,0,1,.84.65.48.48,0,0,1,0,.37.45.45,0,0,1-.29.26l-.27.08-.35,0-.9.1-.49,0,0,0a14.24,14.24,0,0,1,1.92.42,1.85,1.85,0,0,1,1.24.91.57.57,0,0,1,0,.31.49.49,0,0,1-.36.42.45.45,0,0,1-.17.05l-.17,0Z"/><path class="cls-1" d="M21.11,121.82H20.9l-.14,0a.34.34,0,0,0-.12.06.25.25,0,0,0-.05.17.26.26,0,0,0,0,.12l.06.35-.17,0-.12-.33c0-.12-.11-.27-.19-.47,0,0-.05-.12-.13-.28a2.34,2.34,0,0,1-.15-.36.09.09,0,0,1,0-.05.1.1,0,0,1,.05,0H20l3.88.1a5.62,5.62,0,0,1-1.07-.52,1.62,1.62,0,0,1-.75-1,1.11,1.11,0,0,1,.14-.93,1.31,1.31,0,0,1,.79-.53,3.25,3.25,0,0,1,2.5.51,3,3,0,0,1,1.53,1.86,2,2,0,0,1,0,1c-.08.32-.16.47-.25.47Zm4.21-2.57a3.45,3.45,0,0,0-2-.22.91.91,0,0,0-.56.34.67.67,0,0,0-.1.55c.12.51.7.89,1.72,1.13a4.91,4.91,0,0,0,2.13.13.43.43,0,0,0,.27-.2.52.52,0,0,0,0-.4C26.68,120,26.18,119.57,25.32,119.25Z"/><path class="cls-1" d="M21.72,111.44a2.81,2.81,0,0,1-1.25-1.91,1,1,0,0,1,.11-.63.63.63,0,0,1,.51-.28,1.45,1.45,0,0,1,1.3.7A4.36,4.36,0,0,1,23.2,111l.06.28.34.06h.3a.84.84,0,0,0,.65-.36,1.07,1.07,0,0,0,.17-.7,1.62,1.62,0,0,0-.33-.76,6.94,6.94,0,0,0-.59-.63l.1-.14a3.2,3.2,0,0,1,.64.57,2.52,2.52,0,0,1,.69,1.42,1.29,1.29,0,0,1-.27,1,1.4,1.4,0,0,1-1,.51A3,3,0,0,1,21.72,111.44Zm.48-1.67a1.43,1.43,0,0,0-1.1-.48.55.55,0,0,0-.29.12.33.33,0,0,0-.08.28.93.93,0,0,0,.34.6,3.81,3.81,0,0,0,.68.49,5.86,5.86,0,0,0,.82.33l.46.13A2.88,2.88,0,0,0,22.2,109.77Z"/><path class="cls-1" d="M25.19,95.24a3,3,0,0,1-.55-1,.79.79,0,0,1-.19.18.27.27,0,0,1-.24,0c-.13,0-.28-.13-.43-.34a4.33,4.33,0,0,1-.32-.56,1.67,1.67,0,0,1-.4.5,1.06,1.06,0,0,1-.79.18,1.55,1.55,0,0,1-1.17-.73,2.17,2.17,0,0,1-.31-1.5A1.84,1.84,0,0,1,21,91.3a.87.87,0,0,1,.28-.34l.08-.66.4,0-.07.5.21,0a1.29,1.29,0,0,1,.25,0,1.48,1.48,0,0,1,1.18.77A2.23,2.23,0,0,1,23.65,93l0,.14s0,.09,0,.15,0,.13.11.22a.46.46,0,0,0,.24.17c.11,0,.35-.33.71-1s.81-1,1.33-.93a1.31,1.31,0,0,1,1,.67,2.57,2.57,0,0,1,.24,1.69,2,2,0,0,1-.47,1.16,1,1,0,0,1-.85.35A1.07,1.07,0,0,1,25.19,95.24Zm-2.12-1.76a.59.59,0,0,0,.37-.53,1,1,0,0,0-.46-.87,2.47,2.47,0,0,0-1.2-.5.81.81,0,0,0-.53.08.54.54,0,0,0-.24.41,1,1,0,0,0,.48,1,2.35,2.35,0,0,0,1.08.48A1.29,1.29,0,0,0,23.07,93.48Zm3.76-.6a.81.81,0,0,0-.62-.47.64.64,0,0,0-.52.14,1.34,1.34,0,0,0-.28.32c-.08.12-.2.34-.37.64a2.81,2.81,0,0,0-.25.54c0,.08.08.26.28.54a1,1,0,0,0,.73.46.89.89,0,0,0,1-.45,1.92,1.92,0,0,0,.22-.71A1.59,1.59,0,0,0,26.83,92.88Z"/><path class="cls-1" d="M22.64,82.55h.07l.07,0,1.75,1-.2-.17a7.31,7.31,0,0,1-1-1.13,1.31,1.31,0,0,1-.33-1,.45.45,0,0,1,.24-.31.59.59,0,0,1,.37,0,.56.56,0,0,1,.33.21.45.45,0,0,1,.05.38.35.35,0,0,1-.11.21.38.38,0,0,1-.17.08l-.12,0a.1.1,0,0,0,0,0,.09.09,0,0,0,0,.06c0,.12.1.35.39.68a8.53,8.53,0,0,0,1,.92,10,10,0,0,0,.88.63l1,.63-.19.74-2.68-1.55-.42-.22a1.79,1.79,0,0,0-.32-.13.33.33,0,0,0-.24,0,.34.34,0,0,0-.14.23.61.61,0,0,0,0,.15c0,.05,0,.13,0,.21l-.16,0V84c0-.27,0-.56.05-.87s0-.47,0-.49S22.62,82.55,22.64,82.55Z"/><path class="cls-1" d="M26.31,72.2a.81.81,0,0,1,.33-.06h.08l-.31-.24-.07-.06a.11.11,0,0,1,0-.08l.15-.55s0,0,0,0l.06,0,.08.07.09.07,1.47,1.11.83.62a8.27,8.27,0,0,0,.74.5h.11a.12.12,0,0,0,.06-.08.16.16,0,0,0,0-.1s0-.09,0-.16l0-.1a.56.56,0,0,0,0-.12.64.64,0,0,0-.06-.16l-.17-.42.14-.07a5.27,5.27,0,0,1,.52,1.12,1.12,1.12,0,0,1,0,.66.36.36,0,0,1-.23.22.51.51,0,0,1-.34,0,2.17,2.17,0,0,1-.45-.25,4.58,4.58,0,0,1-.47-.33c.07.1.17.24.29.44a3.69,3.69,0,0,1,.33.69,2.37,2.37,0,0,1,.16.81,1.35,1.35,0,0,1-.1.5,1,1,0,0,1-.57.55,1.27,1.27,0,0,1-1,0A3.49,3.49,0,0,1,26.24,75a2.69,2.69,0,0,1-.35-2.31A.89.89,0,0,1,26.31,72.2Zm.11.22a.57.57,0,0,0-.3.31c-.2.51,0,1.13.59,1.88a4.09,4.09,0,0,0,1.52,1.27.89.89,0,0,0,.61.05.55.55,0,0,0,.32-.33c.18-.46,0-1-.59-1.78A3.93,3.93,0,0,0,27,72.46.77.77,0,0,0,26.42,72.42Z"/><path class="cls-1" d="M34.19,69.78a.78.78,0,0,0,.13-.45.63.63,0,0,0-.23-.37l-3.55-3.58-.2-.18-.1-.07a.26.26,0,0,0-.27,0,.6.6,0,0,0-.25.27s0,0,0,.08l0,.09-.14-.07L30.08,64s0,0,.06,0l.1.1.66.69a4.5,4.5,0,0,1-.29-.85,1.61,1.61,0,0,1,.14-1.1,1.12,1.12,0,0,1,.7-.58,1.43,1.43,0,0,1,1,.23,3.25,3.25,0,0,1,1.45,1.94,2.77,2.77,0,0,1-.07,2.28,1.36,1.36,0,0,1-.21.28,2.84,2.84,0,0,1-.29.24l.22.22.55.51c.29.26.46.4.5.43a.24.24,0,0,0,.29,0,1.52,1.52,0,0,0,.31-.41l.13.08-1,1.84ZM31.54,63a.55.55,0,0,0-.59.3,1.2,1.2,0,0,0-.06.82,2.4,2.4,0,0,0,.66,1.14q.43.49.93,1a5.68,5.68,0,0,0,.6.56.31.31,0,0,0,.32,0,.71.71,0,0,0,.26-.28,1.85,1.85,0,0,0-.22-1.87A3.76,3.76,0,0,0,32,63.22,1.61,1.61,0,0,0,31.54,63Z"/><path class="cls-1" d="M33.46,54.66l.25-.46c.07-.11.12-.22.17-.3.17-.37.27-.56.28-.59l0-.06a.09.09,0,0,1,.1,0l2.8,3.65a12.49,12.49,0,0,1-.47-1.62,1.86,1.86,0,0,1,.17-1.45.81.81,0,0,1,.39-.27.66.66,0,0,1,.57.15l.18.17a1.57,1.57,0,0,1,.17.21L39.61,56l.12.16a.6.6,0,0,0,.12.11.2.2,0,0,0,.13,0,.2.2,0,0,0,.1-.07.58.58,0,0,0,.05-.42c0-.12-.08-.36-.18-.73l.17,0a4.82,4.82,0,0,1,.25.92,1.25,1.25,0,0,1-.19.95.49.49,0,0,1-.3.19.43.43,0,0,1-.36-.11.39.39,0,0,1-.1-.08l-.08-.1-1.87-2.34-.06-.07-.06-.06a.26.26,0,0,0-.2,0,.27.27,0,0,0-.18.12,1.35,1.35,0,0,0-.08,1,8.16,8.16,0,0,0,.36,1.34,4.13,4.13,0,0,0,.38.73c.14.2.47.65,1,1.33l-.47.62-3.81-4.95-.07-.09-.07,0c-.11-.09-.21-.1-.29,0a1.67,1.67,0,0,0-.33.41Z"/><path class="cls-1" d="M41.45,46.59a.59.59,0,0,1-.38-.16.57.57,0,0,1-.18-.38.44.44,0,0,1,.13-.36.45.45,0,0,1,.35-.14.55.55,0,0,1,.38.16.57.57,0,0,1,.18.37.45.45,0,0,1-.13.36A.45.45,0,0,1,41.45,46.59Zm1.22.52s0,0,0,0l1.87,3.18a2.13,2.13,0,0,0,.2.28.19.19,0,0,0,.11.07s.08,0,.13,0a.75.75,0,0,0,.1-.52c0-.16,0-.37-.08-.64l.17,0v.09a5.58,5.58,0,0,1,.12,1,1.15,1.15,0,0,1-.26.79.46.46,0,0,1-.38.13.65.65,0,0,1-.4-.19L44.13,51,44,50.74,42.6,48.46l-.06-.09-.06-.08c-.09-.08-.17-.1-.25,0a2.12,2.12,0,0,0-.39.34l-.12-.11.35-.48.21-.3c.09-.13.17-.26.25-.39S42.65,47.11,42.67,47.11Z"/><path class="cls-1" d="M50.27,40.65a.71.71,0,0,1,.54.24.48.48,0,0,1,.13.36.5.5,0,0,1-.17.31.47.47,0,0,1-.31.11.37.37,0,0,1-.28-.14.67.67,0,0,1-.11-.27.51.51,0,0,0-.06-.2.18.18,0,0,0-.18-.05.61.61,0,0,0-.29.16,1.68,1.68,0,0,0-.49,1.58,3.53,3.53,0,0,0,.76,1.85,1.49,1.49,0,0,0,.75.53.84.84,0,0,0,.75-.21,1.41,1.41,0,0,0,.43-.65,2.62,2.62,0,0,0,.16-.85v-.06h.18a3.83,3.83,0,0,1-.08,1,2.1,2.1,0,0,1-.72,1.12,1.42,1.42,0,0,1-1.1.36,1.6,1.6,0,0,1-1.06-.63A3,3,0,0,1,48.51,43a2.69,2.69,0,0,1,.91-2A1.17,1.17,0,0,1,50.27,40.65Z"/><path class="cls-1" d="M56.78,39.3l.14-.09a3.19,3.19,0,0,0,.69.6.88.88,0,0,0,1,0,.69.69,0,0,0,.32-.46.83.83,0,0,0-.14-.59.9.9,0,0,0-.23-.27.89.89,0,0,0-.25-.14l-.67-.3c-.41-.18-.68-.3-.8-.37a1.35,1.35,0,0,1-.42-.4,1.05,1.05,0,0,1-.15-.81,1.14,1.14,0,0,1,.56-.76,2.32,2.32,0,0,1,.52-.22,1.82,1.82,0,0,0,.41-.15.25.25,0,0,0,.13-.14.47.47,0,0,0,0-.17L58,35l.59,1.3-.14.09a2.22,2.22,0,0,0-.55-.51.8.8,0,0,0-.88,0,.61.61,0,0,0-.26.33.49.49,0,0,0,.07.43.92.92,0,0,0,.26.26,4.62,4.62,0,0,0,.59.27l.57.24a4.17,4.17,0,0,1,.67.33,1.29,1.29,0,0,1,.38.39,1.09,1.09,0,0,1,.1,1,1.61,1.61,0,0,1-.72.89,2.42,2.42,0,0,1-.53.25,3.92,3.92,0,0,0-.42.16.23.23,0,0,0-.1.12.42.42,0,0,0,0,.16l-.13.08Z"/><circle class="cls-1" cx="82.42" cy="28.04" r="1.87"/><circle class="cls-1" cx="101.48" cy="176.68" r="1.87"/></svg>